<svg xmlns="http://www.w3.org/2000/svg" width="375" viewBox="0 0 375 375" height="375" version="1.0"><defs><clipPath id="a"><path d="M 130.375 90.445312 L 244.375 90.445312 L 244.375 225.445312 L 130.375 225.445312 Z M 130.375 90.445312"/></clipPath></defs><path fill="#FFF" d="M-37.5 -37.5H412.5V412.5H-37.5z"/><path fill="#FFF" d="M-37.5 -37.5H412.5V412.5H-37.5z"/><path fill="#FFF" d="M-37.5 -37.5H412.5V412.5H-37.5z"/><g clip-path="url(#a)"><path fill="#2F3335" d="M 187.375 201.671875 C 184.011719 201.671875 180.363281 199.433594 176.980469 196.332031 C 177.757812 198.097656 178.679688 200.191406 179.503906 202.011719 C 179.542969 202.097656 179.546875 202.1875 179.511719 202.277344 C 179.476562 202.367188 179.417969 202.433594 179.328125 202.472656 C 179.242188 202.515625 179.152344 202.515625 179.0625 202.484375 C 178.972656 202.449219 178.90625 202.386719 178.867188 202.300781 C 177.96875 200.316406 176.953125 198.003906 176.140625 196.148438 L 175.664062 195.066406 C 174.785156 194.1875 173.933594 193.265625 173.117188 192.316406 C 173.117188 192.972656 173.117188 193.628906 173.121094 194.277344 C 173.144531 200.914062 173.160156 206.644531 172.195312 208.777344 C 171.765625 209.691406 171.257812 210.554688 170.664062 211.371094 C 170.121094 212.160156 169.726562 212.730469 169.726562 213.292969 C 169.726562 215.65625 172.195312 217.65625 177.277344 219.414062 C 178.679688 220.011719 179.976562 220.792969 181.160156 221.757812 C 183.148438 223.203125 185.203125 224.699219 187.375 224.699219 C 189.550781 224.699219 191.605469 223.207031 193.589844 221.757812 C 194.777344 220.792969 196.070312 220.011719 197.476562 219.414062 C 202.558594 217.65625 205.027344 215.65625 205.027344 213.292969 C 205.027344 212.730469 204.632812 212.160156 204.085938 211.371094 C 203.496094 210.554688 202.988281 209.691406 202.558594 208.777344 C 201.59375 206.644531 201.609375 200.914062 201.628906 194.277344 C 201.628906 193.628906 201.632812 192.972656 201.636719 192.316406 C 200.816406 193.261719 199.964844 194.1875 199.089844 195.066406 L 198.613281 196.148438 C 197.800781 198.003906 196.785156 200.316406 195.886719 202.300781 C 195.824219 202.4375 195.71875 202.503906 195.566406 202.503906 C 195.515625 202.503906 195.46875 202.496094 195.421875 202.472656 C 195.335938 202.433594 195.273438 202.367188 195.242188 202.277344 C 195.207031 202.1875 195.210938 202.097656 195.25 202.011719 C 196.074219 200.191406 196.996094 198.097656 197.773438 196.332031 C 194.390625 199.433594 190.738281 201.671875 187.375 201.671875 Z M 187.375 225.398438 C 184.972656 225.398438 182.824219 223.835938 180.75 222.320312 C 179.621094 221.402344 178.386719 220.652344 177.046875 220.074219 C 171.652344 218.210938 169.027344 215.988281 169.027344 213.292969 C 169.027344 212.511719 169.496094 211.832031 170.089844 210.972656 C 170.660156 210.191406 171.148438 209.363281 171.558594 208.488281 C 172.460938 206.496094 172.445312 200.5625 172.421875 194.277344 C 172.421875 193.359375 172.417969 192.425781 172.417969 191.488281 C 171.429688 190.296875 170.496094 189.085938 169.644531 187.894531 C 169.050781 191.28125 165.285156 192.863281 161.320312 194.527344 C 159.519531 195.226562 157.785156 196.0625 156.113281 197.03125 C 155.792969 197.507812 155.621094 198.03125 155.59375 198.601562 C 155.566406 199.175781 155.691406 199.710938 155.964844 200.214844 C 156.234375 200.675781 156.59375 201.046875 157.046875 201.328125 C 157.5 201.609375 157.992188 201.769531 158.523438 201.804688 C 159.71875 201.804688 160.96875 201.234375 162.289062 200.625 C 164.839844 199.457031 167.730469 198.128906 170.761719 201.070312 C 170.832031 201.132812 170.867188 201.214844 170.871094 201.304688 C 170.875 201.398438 170.847656 201.480469 170.789062 201.550781 C 170.730469 201.621094 170.652344 201.664062 170.558594 201.671875 C 170.46875 201.683594 170.386719 201.660156 170.3125 201.601562 C 168.296875 200.085938 166.652344 201.414062 164.382812 203.253906 C 162.226562 204.996094 159.789062 206.976562 156.308594 206.976562 C 155.214844 206.9375 154.164062 206.691406 153.160156 206.25 C 152.152344 205.804688 151.265625 205.1875 150.5 204.402344 C 149.785156 203.597656 149.269531 202.679688 148.953125 201.652344 C 148.636719 200.625 148.542969 199.578125 148.679688 198.507812 C 149.078125 193.390625 153.183594 190.082031 157.152344 186.878906 C 160.640625 184.066406 163.941406 181.410156 164.039062 177.863281 C 163.207031 177.191406 162.40625 176.492188 161.644531 175.761719 C 158.355469 175.878906 154.25 177.8125 152.570312 181.351562 C 153.582031 184.550781 152.246094 185.601562 150.949219 186.617188 C 150.320312 187.050781 149.796875 187.585938 149.375 188.222656 C 149.308594 188.339844 149.207031 188.394531 149.074219 188.394531 C 148.925781 188.394531 148.820312 188.328125 148.757812 188.191406 C 148.429688 187.382812 148.296875 186.542969 148.351562 185.675781 C 148.40625 184.804688 148.648438 183.988281 149.074219 183.230469 C 149.363281 182.660156 149.757812 182.179688 150.265625 181.789062 C 150.773438 181.398438 151.335938 181.136719 151.960938 181.007812 C 153.28125 178.273438 155.941406 176.4375 158.636719 175.589844 C 154.195312 175.171875 149.996094 174.027344 147.585938 172.878906 C 146.527344 174.570312 145.25 176.128906 143.566406 176.128906 C 143.125 176.125 142.699219 176.027344 142.296875 175.84375 C 141.511719 175.421875 140.816406 174.882812 140.203125 174.234375 C 139.132812 173.226562 138.027344 172.183594 136.984375 172.503906 C 136.855469 172.542969 136.738281 172.515625 136.640625 172.417969 C 136.542969 172.324219 136.511719 172.210938 136.546875 172.078125 C 136.738281 171.382812 137.089844 170.785156 137.609375 170.289062 C 138.128906 169.789062 138.738281 169.464844 139.4375 169.304688 C 139.359375 169.113281 139.289062 168.929688 139.21875 168.75 C 139.082031 168.191406 138.808594 167.703125 138.398438 167.296875 C 138.316406 167.246094 138.265625 167.171875 138.242188 167.078125 C 138.21875 166.984375 138.230469 166.894531 138.28125 166.8125 C 138.332031 166.730469 138.402344 166.675781 138.5 166.652344 C 138.59375 166.628906 138.679688 166.644531 138.761719 166.695312 C 139.3125 166.871094 139.867188 166.894531 140.429688 166.757812 C 140.617188 166.738281 140.8125 166.71875 141.019531 166.699219 C 140.839844 166 140.847656 165.308594 141.050781 164.617188 C 141.253906 163.925781 141.621094 163.335938 142.148438 162.847656 C 142.25 162.757812 142.367188 162.734375 142.496094 162.777344 C 142.625 162.820312 142.703125 162.910156 142.726562 163.042969 C 142.925781 164.117188 144.355469 164.628906 145.734375 165.125 C 146.589844 165.371094 147.386719 165.746094 148.121094 166.25 C 150.070312 167.847656 149.1875 170.160156 147.949219 172.273438 C 150.601562 173.519531 155.417969 174.757812 160.3125 175.003906 C 156.273438 172.660156 151.976562 168.53125 148.828125 162.804688 C 147.300781 161.621094 145.835938 160.386719 144.542969 159.292969 C 144.175781 158.984375 143.820312 158.683594 143.472656 158.390625 C 142.789062 158.261719 142.101562 158.230469 141.414062 158.289062 C 140.214844 158.40625 139.046875 158.273438 137.90625 157.886719 C 136.15625 157.203125 134.746094 155.589844 133.503906 154.164062 C 132.476562 152.988281 131.503906 151.875 130.722656 151.816406 C 130.546875 151.800781 130.441406 151.707031 130.40625 151.535156 C 130.375 151.363281 130.433594 151.234375 130.589844 151.15625 C 133.464844 149.714844 138.265625 150.40625 140.867188 152.636719 C 141.753906 153.394531 142.230469 154.585938 142.648438 155.640625 C 142.894531 156.453125 143.296875 157.175781 143.859375 157.808594 C 144.222656 158.113281 144.601562 158.429688 144.992188 158.761719 C 145.929688 159.554688 146.960938 160.425781 148.039062 161.292969 C 145.746094 156.570312 144.464844 151.585938 144.199219 146.339844 C 143.628906 143.671875 142.523438 141.253906 140.878906 139.082031 C 140.707031 138.835938 140.554688 138.617188 140.433594 138.429688 C 137.332031 137.988281 136.042969 135.773438 135.09375 134.144531 C 134.800781 133.519531 134.398438 132.976562 133.882812 132.515625 C 133.730469 132.421875 133.679688 132.289062 133.734375 132.117188 C 133.789062 131.941406 133.902344 131.859375 134.082031 131.867188 C 138.757812 131.867188 140.710938 135.144531 140.980469 137.988281 C 141.101562 138.183594 141.261719 138.414062 141.449219 138.679688 C 142.5625 140.179688 143.457031 141.804688 144.128906 143.554688 C 144.179688 139.519531 144.710938 135.550781 145.722656 131.644531 C 143.449219 130.691406 141.3125 129.367188 141.933594 126.886719 C 142.222656 126.042969 142.636719 125.265625 143.175781 124.554688 C 143.992188 123.332031 144.832031 122.066406 144.355469 121.082031 C 144.292969 120.960938 144.304688 120.84375 144.382812 120.730469 C 144.457031 120.617188 144.566406 120.566406 144.703125 120.582031 C 145.414062 120.65625 146.058594 120.910156 146.632812 121.339844 C 147.207031 121.773438 147.628906 122.324219 147.898438 122.992188 C 148.074219 122.882812 148.242188 122.78125 148.40625 122.683594 C 149.050781 122.300781 149.558594 121.996094 149.703125 121.636719 C 149.777344 121.457031 149.90625 121.386719 150.09375 121.425781 C 150.28125 121.460938 150.375 121.574219 150.375 121.765625 C 150.375 121.8125 150.367188 121.855469 150.351562 121.898438 C 150.265625 122.46875 150.335938 123.023438 150.558594 123.554688 C 150.609375 123.738281 150.660156 123.929688 150.710938 124.132812 C 151.367188 123.839844 152.050781 123.738281 152.765625 123.824219 C 153.476562 123.914062 154.117188 124.179688 154.679688 124.625 C 154.785156 124.707031 154.828125 124.816406 154.808594 124.953125 C 154.785156 125.085938 154.710938 125.175781 154.582031 125.222656 C 153.558594 125.597656 153.289062 127.09375 153.03125 128.542969 C 152.925781 129.429688 152.6875 130.277344 152.3125 131.089844 C 152.042969 131.59375 151.660156 131.988281 151.160156 132.269531 C 150.664062 132.554688 150.128906 132.679688 149.558594 132.652344 C 148.453125 132.59375 147.394531 132.34375 146.382812 131.90625 C 140.957031 153.414062 150.800781 168.148438 159.832031 173.898438 C 158.9375 172.914062 158.097656 171.882812 157.3125 170.808594 C 156.527344 169.734375 155.800781 168.617188 155.136719 167.464844 C 154.46875 166.3125 153.867188 165.125 153.324219 163.910156 C 152.785156 162.691406 152.3125 161.449219 151.90625 160.179688 C 151.496094 158.910156 151.160156 157.625 150.886719 156.320312 C 150.617188 155.011719 150.417969 153.699219 150.289062 152.371094 C 150.160156 151.042969 150.097656 149.714844 150.109375 148.382812 C 150.121094 147.050781 150.207031 145.71875 150.359375 144.394531 C 150.511719 143.074219 150.734375 141.761719 151.027344 140.460938 C 151.320312 139.160156 151.683594 137.878906 152.113281 136.617188 C 152.542969 135.355469 153.039062 134.121094 153.597656 132.914062 C 154.160156 131.707031 154.785156 130.53125 155.472656 129.390625 C 156.15625 128.25 156.902344 127.148438 157.707031 126.085938 C 158.511719 125.027344 159.367188 124.011719 160.28125 123.042969 C 161.191406 122.074219 162.152344 121.15625 163.164062 120.289062 C 164.171875 119.425781 165.226562 118.613281 166.320312 117.863281 C 166.03125 117.878906 165.730469 117.890625 165.417969 117.890625 C 163.875 117.878906 162.351562 117.6875 160.851562 117.316406 C 159.992188 119.445312 157.789062 121.417969 155.269531 121.417969 C 155.117188 121.417969 154.964844 121.410156 154.808594 121.394531 C 154.644531 121.378906 154.542969 121.289062 154.503906 121.125 C 154.464844 120.964844 154.515625 120.839844 154.65625 120.75 C 155.214844 120.296875 155.632812 119.738281 155.914062 119.074219 C 156.441406 118.097656 157.023438 117.015625 158.253906 116.519531 C 155.296875 115.445312 152.753906 113.746094 150.625 111.421875 C 149.726562 112.113281 148.710938 112.503906 147.582031 112.597656 C 146.929688 112.617188 146.386719 112.378906 145.953125 111.890625 C 145.546875 111.359375 145.210938 110.789062 144.949219 110.171875 C 144.480469 109.1875 143.988281 108.175781 143.304688 108.019531 C 143.183594 107.992188 143.101562 107.921875 143.054688 107.804688 C 143.011719 107.691406 143.023438 107.582031 143.09375 107.480469 C 143.46875 107.035156 143.921875 106.699219 144.453125 106.46875 C 144.984375 106.238281 145.539062 106.136719 146.117188 106.164062 L 146.101562 105.917969 C 146.121094 105.515625 146.046875 105.128906 145.878906 104.761719 C 145.824219 104.683594 145.804688 104.597656 145.820312 104.5 C 145.835938 104.40625 145.886719 104.332031 145.964844 104.273438 C 146.042969 104.21875 146.128906 104.199219 146.222656 104.214844 C 146.316406 104.230469 146.394531 104.277344 146.449219 104.355469 C 146.738281 104.636719 147.078125 104.835938 147.464844 104.953125 L 147.691406 105.046875 C 147.855469 104.492188 148.136719 104 148.527344 103.570312 C 148.921875 103.144531 149.390625 102.828125 149.929688 102.621094 C 150.050781 102.585938 150.15625 102.609375 150.25 102.691406 C 150.34375 102.773438 150.382812 102.875 150.371094 103 C 150.289062 103.699219 151.078125 104.5 151.847656 105.269531 C 152.339844 105.71875 152.769531 106.226562 153.128906 106.789062 C 153.824219 108.050781 153.140625 109.539062 151.199219 111.015625 C 152.433594 112.335938 153.820312 113.457031 155.367188 114.382812 C 156.917969 115.3125 158.5625 116.003906 160.304688 116.464844 C 159.820312 116.023438 159.394531 115.535156 159.03125 114.992188 C 158.667969 114.449219 158.375 113.871094 158.148438 113.253906 C 157.925781 112.640625 157.78125 112.007812 157.710938 111.355469 C 157.640625 110.707031 157.652344 110.054688 157.738281 109.40625 C 157.757812 109.257812 157.84375 109.160156 157.988281 109.117188 C 158.132812 109.074219 158.257812 109.109375 158.355469 109.226562 C 158.851562 109.753906 159.453125 110.113281 160.148438 110.304688 C 161.054688 110.640625 161.988281 110.992188 162.472656 112.234375 C 162.878906 113.183594 162.90625 114.140625 162.5625 115.113281 C 162.339844 115.710938 162.300781 116.316406 162.433594 116.9375 C 164.175781 117.269531 165.917969 117.285156 167.660156 116.988281 C 168.460938 116.484375 169.277344 116.011719 170.117188 115.570312 C 168.3125 114.667969 165.835938 111.925781 165.929688 109.226562 C 165.933594 109.082031 166 108.980469 166.132812 108.921875 C 166.261719 108.859375 166.382812 108.875 166.496094 108.964844 C 168.050781 110.226562 170.199219 109.429688 172.691406 108.503906 L 172.746094 108.484375 C 171.867188 107.878906 171.277344 107.066406 170.96875 106.042969 C 170.003906 103.023438 171.570312 98.886719 172.644531 96.917969 C 172.707031 96.808594 172.800781 96.746094 172.929688 96.738281 C 173.054688 96.730469 173.15625 96.777344 173.230469 96.878906 C 174.273438 98.285156 175.476562 98.71875 176.746094 99.179688 C 177.746094 99.476562 178.65625 99.945312 179.476562 100.585938 C 179.554688 100.378906 179.652344 100.183594 179.769531 99.996094 C 180.097656 99.5 180.527344 99.121094 181.054688 98.855469 C 181.585938 98.589844 182.144531 98.476562 182.734375 98.511719 C 184.679688 98.605469 186.675781 95.289062 187.039062 93.792969 C 187.074219 93.605469 187.1875 93.511719 187.378906 93.511719 C 187.570312 93.511719 187.683594 93.605469 187.71875 93.792969 C 188.082031 95.289062 190.078125 98.605469 192.023438 98.511719 C 192.613281 98.476562 193.171875 98.589844 193.703125 98.855469 C 194.230469 99.121094 194.660156 99.5 194.988281 99.996094 C 195.105469 100.179688 195.203125 100.378906 195.28125 100.585938 C 196.101562 99.945312 197.011719 99.472656 198.007812 99.175781 C 199.277344 98.714844 200.480469 98.28125 201.523438 96.875 C 201.597656 96.769531 201.699219 96.726562 201.828125 96.734375 C 201.953125 96.742188 202.046875 96.804688 202.109375 96.914062 C 203.1875 98.882812 204.75 103.019531 203.785156 106.039062 C 203.476562 107.0625 202.886719 107.875 202.007812 108.480469 L 202.0625 108.5 C 204.554688 109.425781 206.703125 110.21875 208.257812 108.960938 C 208.371094 108.871094 208.492188 108.855469 208.621094 108.917969 C 208.753906 108.976562 208.820312 109.078125 208.828125 109.222656 C 208.917969 111.921875 206.441406 114.664062 204.636719 115.566406 C 205.472656 116.003906 206.292969 116.476562 207.09375 116.984375 C 208.839844 117.28125 210.578125 117.265625 212.320312 116.933594 C 212.453125 116.3125 212.414062 115.707031 212.195312 115.109375 C 211.847656 114.136719 211.875 113.179688 212.28125 112.230469 C 212.765625 110.988281 213.699219 110.636719 214.605469 110.300781 C 215.304688 110.109375 215.902344 109.75 216.402344 109.222656 C 216.5 109.105469 216.621094 109.070312 216.765625 109.113281 C 216.910156 109.15625 216.992188 109.253906 217.015625 109.402344 C 217.101562 110.050781 217.113281 110.703125 217.042969 111.351562 C 216.972656 112.003906 216.828125 112.636719 216.605469 113.25 C 216.378906 113.867188 216.085938 114.445312 215.722656 114.988281 C 215.359375 115.53125 214.933594 116.019531 214.449219 116.460938 C 216.191406 116 217.835938 115.304688 219.382812 114.378906 C 220.929688 113.453125 222.320312 112.328125 223.550781 111.007812 C 221.609375 109.535156 220.925781 108.046875 221.621094 106.785156 C 221.984375 106.222656 222.410156 105.714844 222.90625 105.265625 C 223.671875 104.492188 224.460938 103.695312 224.382812 102.992188 C 224.375 102.9375 224.382812 102.878906 224.402344 102.824219 C 224.425781 102.773438 224.457031 102.726562 224.5 102.6875 C 224.542969 102.648438 224.59375 102.625 224.652344 102.613281 C 224.707031 102.597656 224.765625 102.601562 224.820312 102.617188 C 225.363281 102.824219 225.828125 103.140625 226.222656 103.566406 C 226.617188 103.992188 226.894531 104.488281 227.058594 105.042969 L 227.285156 104.949219 C 227.671875 104.832031 228.007812 104.632812 228.300781 104.351562 C 228.398438 104.214844 228.527344 104.171875 228.691406 104.222656 C 228.851562 104.273438 228.933594 104.382812 228.933594 104.554688 C 228.933594 104.628906 228.914062 104.695312 228.867188 104.757812 C 228.703125 105.125 228.628906 105.511719 228.644531 105.914062 L 228.628906 106.160156 C 229.207031 106.132812 229.765625 106.234375 230.296875 106.464844 C 230.828125 106.695312 231.28125 107.03125 231.65625 107.476562 C 231.726562 107.578125 231.738281 107.6875 231.691406 107.800781 C 231.648438 107.917969 231.566406 107.988281 231.445312 108.015625 C 230.757812 108.171875 230.269531 109.183594 229.796875 110.164062 C 229.539062 110.78125 229.203125 111.355469 228.792969 111.886719 C 228.363281 112.375 227.820312 112.613281 227.167969 112.59375 C 226.039062 112.5 225.023438 112.109375 224.121094 111.417969 C 221.996094 113.742188 219.453125 115.441406 216.496094 116.515625 C 217.726562 117.011719 218.308594 118.09375 218.835938 119.070312 C 219.117188 119.734375 219.535156 120.292969 220.09375 120.746094 C 220.234375 120.835938 220.285156 120.960938 220.246094 121.121094 C 220.207031 121.285156 220.105469 121.375 219.941406 121.390625 C 219.785156 121.40625 219.632812 121.410156 219.480469 121.410156 C 216.964844 121.410156 214.757812 119.441406 213.902344 117.3125 C 212.402344 117.683594 210.878906 117.875 209.332031 117.886719 C 209.019531 117.886719 208.71875 117.875 208.429688 117.859375 C 209.527344 118.609375 210.578125 119.421875 211.589844 120.285156 C 212.601562 121.152344 213.5625 122.070312 214.472656 123.039062 C 215.386719 124.007812 216.242188 125.019531 217.046875 126.082031 C 217.851562 127.144531 218.597656 128.246094 219.285156 129.386719 C 219.972656 130.527344 220.59375 131.699219 221.15625 132.910156 C 221.71875 134.117188 222.214844 135.351562 222.644531 136.613281 C 223.074219 137.875 223.433594 139.15625 223.730469 140.457031 C 224.023438 141.753906 224.246094 143.066406 224.398438 144.390625 C 224.550781 145.714844 224.636719 147.042969 224.648438 148.378906 C 224.660156 149.710938 224.601562 151.039062 224.46875 152.367188 C 224.339844 153.695312 224.140625 155.011719 223.871094 156.316406 C 223.601562 157.621094 223.261719 158.90625 222.855469 160.175781 C 222.445312 161.445312 221.972656 162.6875 221.433594 163.90625 C 220.894531 165.125 220.289062 166.308594 219.625 167.464844 C 218.957031 168.617188 218.234375 169.730469 217.449219 170.804688 C 216.664062 171.882812 215.824219 172.910156 214.929688 173.898438 C 223.957031 168.148438 233.800781 153.410156 228.378906 131.90625 C 227.363281 132.34375 226.304688 132.59375 225.203125 132.648438 C 224.628906 132.679688 224.097656 132.554688 223.597656 132.269531 C 223.101562 131.988281 222.71875 131.59375 222.449219 131.085938 C 222.070312 130.277344 221.832031 129.429688 221.730469 128.542969 C 221.46875 127.09375 221.199219 125.597656 220.175781 125.222656 C 220.050781 125.175781 219.972656 125.085938 219.953125 124.953125 C 219.929688 124.816406 219.972656 124.707031 220.078125 124.621094 C 220.644531 124.179688 221.28125 123.914062 221.996094 123.824219 C 222.707031 123.738281 223.390625 123.839844 224.046875 124.128906 C 224.097656 123.929688 224.152344 123.738281 224.199219 123.554688 C 224.421875 123.023438 224.492188 122.46875 224.410156 121.898438 C 224.390625 121.855469 224.382812 121.8125 224.382812 121.765625 C 224.382812 121.574219 224.476562 121.457031 224.664062 121.421875 C 224.855469 121.386719 224.984375 121.457031 225.054688 121.636719 C 225.203125 121.996094 225.710938 122.300781 226.351562 122.683594 C 226.515625 122.78125 226.683594 122.882812 226.859375 122.992188 C 227.128906 122.324219 227.550781 121.773438 228.125 121.339844 C 228.699219 120.90625 229.34375 120.652344 230.058594 120.578125 C 230.195312 120.566406 230.300781 120.617188 230.378906 120.730469 C 230.457031 120.84375 230.464844 120.960938 230.40625 121.082031 C 229.925781 122.0625 230.769531 123.328125 231.582031 124.554688 C 232.121094 125.265625 232.535156 126.042969 232.824219 126.886719 C 233.445312 129.363281 231.3125 130.691406 229.035156 131.644531 C 230.046875 135.550781 230.578125 139.519531 230.628906 143.550781 C 231.304688 141.804688 232.195312 140.179688 233.308594 138.675781 C 233.496094 138.414062 233.65625 138.183594 233.78125 137.988281 C 234.046875 135.144531 236.003906 131.867188 240.675781 131.867188 C 240.855469 131.859375 240.972656 131.945312 241.023438 132.113281 C 241.078125 132.285156 241.027344 132.421875 240.875 132.515625 C 240.359375 132.972656 239.957031 133.515625 239.664062 134.144531 C 238.71875 135.769531 237.425781 137.988281 234.328125 138.429688 C 234.207031 138.617188 234.054688 138.832031 233.878906 139.082031 C 232.238281 141.253906 231.128906 143.671875 230.5625 146.339844 C 230.292969 151.585938 229.011719 156.570312 226.722656 161.292969 C 227.800781 160.421875 228.828125 159.554688 229.769531 158.761719 C 230.160156 158.429688 230.535156 158.113281 230.898438 157.808594 C 231.464844 157.175781 231.867188 156.453125 232.109375 155.640625 C 232.464844 154.496094 233.058594 153.492188 233.894531 152.636719 C 236.492188 150.40625 241.296875 149.710938 244.167969 151.15625 C 244.324219 151.234375 244.386719 151.363281 244.351562 151.535156 C 244.316406 151.707031 244.210938 151.800781 244.039062 151.816406 C 243.253906 151.875 242.285156 152.988281 241.253906 154.164062 C 240.011719 155.589844 238.605469 157.203125 236.855469 157.886719 C 235.714844 158.273438 234.546875 158.40625 233.347656 158.289062 C 232.65625 158.226562 231.96875 158.261719 231.289062 158.390625 C 230.941406 158.683594 230.582031 158.984375 230.21875 159.292969 C 228.921875 160.382812 227.457031 161.621094 225.933594 162.804688 C 222.78125 168.53125 218.484375 172.664062 214.449219 175.003906 C 219.339844 174.753906 224.160156 173.519531 226.808594 172.269531 C 225.574219 170.160156 224.6875 167.847656 226.640625 166.25 C 227.375 165.746094 228.167969 165.367188 229.023438 165.121094 C 230.40625 164.628906 231.835938 164.117188 232.035156 163.042969 C 232.058594 162.910156 232.136719 162.820312 232.265625 162.773438 C 232.394531 162.730469 232.507812 162.753906 232.609375 162.847656 C 233.140625 163.335938 233.503906 163.925781 233.707031 164.613281 C 233.910156 165.304688 233.921875 166 233.742188 166.699219 C 233.945312 166.714844 234.144531 166.734375 234.332031 166.757812 C 234.890625 166.890625 235.445312 166.871094 235.996094 166.695312 C 236.078125 166.644531 236.167969 166.628906 236.261719 166.652344 C 236.355469 166.675781 236.425781 166.730469 236.476562 166.8125 C 236.527344 166.894531 236.539062 166.984375 236.515625 167.078125 C 236.496094 167.171875 236.441406 167.246094 236.359375 167.292969 C 235.949219 167.703125 235.675781 168.1875 235.539062 168.75 C 235.472656 168.925781 235.398438 169.109375 235.320312 169.304688 C 236.019531 169.460938 236.628906 169.789062 237.148438 170.289062 C 237.667969 170.785156 238.023438 171.382812 238.210938 172.074219 C 238.246094 172.207031 238.214844 172.324219 238.117188 172.417969 C 238.019531 172.511719 237.90625 172.542969 237.773438 172.503906 C 236.734375 172.183594 235.625 173.226562 234.554688 174.234375 C 233.945312 174.882812 233.246094 175.421875 232.460938 175.84375 C 232.058594 176.027344 231.636719 176.121094 231.191406 176.128906 C 229.511719 176.128906 228.230469 174.570312 227.175781 172.878906 C 224.765625 174.027344 220.5625 175.171875 216.125 175.589844 C 218.816406 176.433594 221.480469 178.269531 222.796875 181.007812 C 223.421875 181.136719 223.988281 181.398438 224.492188 181.789062 C 225 182.179688 225.398438 182.660156 225.683594 183.230469 C 226.113281 183.988281 226.351562 184.804688 226.410156 185.671875 C 226.464844 186.542969 226.328125 187.382812 226.003906 188.1875 C 225.945312 188.320312 225.84375 188.386719 225.703125 188.394531 C 225.5625 188.398438 225.457031 188.34375 225.382812 188.222656 C 224.960938 187.585938 224.4375 187.050781 223.808594 186.617188 C 222.511719 185.601562 221.171875 184.550781 222.183594 181.347656 C 220.507812 177.8125 216.402344 175.878906 213.113281 175.761719 C 212.347656 176.492188 211.550781 177.191406 210.71875 177.863281 C 210.816406 181.410156 214.117188 184.066406 217.605469 186.878906 C 221.574219 190.078125 225.679688 193.390625 226.078125 198.507812 C 226.214844 199.574219 226.121094 200.625 225.804688 201.652344 C 225.488281 202.679688 224.972656 203.597656 224.257812 204.402344 C 223.492188 205.1875 222.601562 205.800781 221.597656 206.246094 C 220.59375 206.691406 219.542969 206.933594 218.445312 206.976562 C 214.96875 206.976562 212.527344 205 210.375 203.253906 C 208.101562 201.414062 206.457031 200.082031 204.445312 201.601562 C 204.371094 201.65625 204.289062 201.679688 204.199219 201.671875 C 204.105469 201.660156 204.027344 201.621094 203.96875 201.550781 C 203.910156 201.480469 203.878906 201.398438 203.886719 201.304688 C 203.890625 201.210938 203.925781 201.132812 203.996094 201.070312 C 207.027344 198.125 209.917969 199.453125 212.46875 200.625 C 213.785156 201.230469 215.035156 201.804688 216.234375 201.804688 C 216.765625 201.765625 217.257812 201.609375 217.710938 201.328125 C 218.164062 201.046875 218.523438 200.675781 218.792969 200.214844 C 219.066406 199.710938 219.191406 199.175781 219.164062 198.601562 C 219.136719 198.027344 218.964844 197.503906 218.644531 197.03125 C 216.972656 196.058594 215.238281 195.226562 213.4375 194.527344 C 209.46875 192.863281 205.707031 191.28125 205.113281 187.894531 C 204.261719 189.082031 203.328125 190.296875 202.339844 191.488281 C 202.339844 192.425781 202.339844 193.359375 202.335938 194.277344 C 202.3125 200.558594 202.296875 206.492188 203.199219 208.488281 C 203.609375 209.359375 204.097656 210.1875 204.667969 210.96875 C 205.261719 211.832031 205.730469 212.511719 205.730469 213.289062 C 205.730469 215.988281 203.105469 218.207031 197.710938 220.070312 C 196.371094 220.648438 195.136719 221.398438 194.007812 222.320312 C 191.925781 223.832031 189.777344 225.398438 187.375 225.398438 Z M 187.375 94.90625 C 186.582031 96.71875 184.71875 99.3125 182.699219 99.207031 C 182.230469 99.175781 181.789062 99.261719 181.371094 99.472656 C 180.953125 99.679688 180.613281 99.976562 180.355469 100.367188 C 179.785156 101.261719 179.828125 102.445312 180.480469 103.695312 C 181.722656 106.226562 182.8125 108.820312 183.746094 111.480469 C 184.941406 111.363281 186.148438 111.304688 187.375 111.300781 C 188.597656 111.296875 189.808594 111.355469 191.003906 111.480469 C 191.9375 108.820312 193.027344 106.226562 194.269531 103.695312 C 194.921875 102.445312 194.964844 101.261719 194.394531 100.367188 C 194.136719 99.976562 193.800781 99.679688 193.378906 99.472656 C 192.960938 99.261719 192.519531 99.175781 192.050781 99.207031 C 190.03125 99.3125 188.167969 96.71875 187.375 94.90625 Z M 187.375 112.003906 C 185.082031 112.003906 182.808594 112.21875 180.554688 112.644531 C 180.613281 113.054688 180.707031 113.453125 180.839844 113.84375 C 180.96875 114.234375 181.132812 114.613281 181.328125 114.972656 C 181.527344 115.335938 181.753906 115.675781 182.011719 115.996094 C 182.269531 116.316406 182.554688 116.613281 182.867188 116.882812 C 183.175781 117.152344 183.507812 117.390625 183.863281 117.601562 C 184.214844 117.8125 184.585938 117.988281 184.96875 118.132812 C 185.355469 118.277344 185.75 118.386719 186.152344 118.457031 C 186.558594 118.53125 186.964844 118.566406 187.375 118.566406 C 187.785156 118.566406 188.195312 118.53125 188.597656 118.457031 C 189.003906 118.386719 189.398438 118.277344 189.78125 118.132812 C 190.167969 117.988281 190.535156 117.8125 190.890625 117.601562 C 191.242188 117.390625 191.574219 117.152344 191.886719 116.882812 C 192.195312 116.613281 192.480469 116.316406 192.738281 115.996094 C 192.996094 115.675781 193.222656 115.335938 193.421875 114.972656 C 193.617188 114.613281 193.78125 114.234375 193.914062 113.84375 C 194.042969 113.453125 194.136719 113.054688 194.195312 112.644531 C 191.945312 112.21875 189.671875 112.003906 187.375 112.003906 Z M 187.375 119.269531 C 186.925781 119.269531 186.476562 119.230469 186.03125 119.152344 C 185.585938 119.074219 185.152344 118.957031 184.730469 118.800781 C 184.304688 118.640625 183.902344 118.449219 183.511719 118.21875 C 183.121094 117.988281 182.757812 117.726562 182.414062 117.429688 C 182.074219 117.132812 181.761719 116.8125 181.476562 116.457031 C 181.191406 116.105469 180.941406 115.730469 180.722656 115.335938 C 180.507812 114.9375 180.324219 114.523438 180.183594 114.097656 C 180.039062 113.667969 179.933594 113.226562 179.867188 112.777344 C 179.46875 112.863281 179.066406 112.957031 178.671875 113.054688 C 178.796875 113.484375 178.886719 113.921875 178.933594 114.367188 C 178.984375 114.816406 178.992188 115.261719 178.964844 115.710938 C 178.933594 116.15625 178.867188 116.597656 178.757812 117.035156 C 178.652344 117.46875 178.507812 117.890625 178.324219 118.300781 C 178.144531 118.710938 177.929688 119.101562 177.679688 119.472656 C 177.425781 119.847656 177.148438 120.191406 176.835938 120.515625 C 176.523438 120.835938 176.1875 121.128906 175.824219 121.390625 C 175.460938 121.652344 175.078125 121.878906 174.675781 122.074219 C 174.273438 122.269531 173.855469 122.425781 173.425781 122.546875 C 172.996094 122.667969 172.558594 122.75 172.113281 122.789062 C 171.667969 122.832031 171.222656 122.835938 170.777344 122.800781 C 170.332031 122.765625 169.890625 122.6875 169.460938 122.574219 C 169.027344 122.460938 168.609375 122.308594 168.203125 122.121094 C 167.796875 121.933594 167.410156 121.710938 167.042969 121.453125 C 166.679688 121.195312 166.335938 120.910156 166.019531 120.589844 C 165.703125 120.273438 165.417969 119.933594 165.164062 119.5625 C 164.84375 119.808594 164.527344 120.058594 164.21875 120.316406 C 164.5 120.652344 164.75 121.011719 164.972656 121.390625 C 165.191406 121.769531 165.378906 122.164062 165.53125 122.578125 C 165.683594 122.988281 165.796875 123.410156 165.878906 123.84375 C 165.957031 124.273438 166 124.710938 166.003906 125.148438 C 166.007812 125.585938 165.972656 126.023438 165.902344 126.457031 C 165.832031 126.890625 165.726562 127.316406 165.582031 127.730469 C 165.4375 128.144531 165.257812 128.542969 165.046875 128.925781 C 164.832031 129.308594 164.589844 129.671875 164.3125 130.015625 C 164.039062 130.355469 163.738281 130.671875 163.40625 130.960938 C 163.078125 131.25 162.726562 131.507812 162.351562 131.734375 C 161.976562 131.960938 161.585938 132.15625 161.179688 132.316406 C 160.769531 132.476562 160.351562 132.597656 159.925781 132.6875 C 159.496094 132.773438 159.0625 132.824219 158.625 132.835938 C 158.1875 132.847656 157.753906 132.820312 157.320312 132.757812 C 156.886719 132.695312 156.460938 132.59375 156.046875 132.457031 C 155.628906 132.320312 155.230469 132.148438 154.84375 131.941406 C 154.664062 132.292969 154.488281 132.652344 154.316406 133.011719 C 155.074219 133.402344 155.746094 133.90625 156.332031 134.523438 C 156.917969 135.144531 157.390625 135.839844 157.742188 136.617188 C 158.097656 137.394531 158.316406 138.207031 158.394531 139.058594 C 158.476562 139.90625 158.417969 140.746094 158.21875 141.578125 C 158.015625 142.40625 157.6875 143.183594 157.226562 143.902344 C 156.765625 144.621094 156.203125 145.242188 155.535156 145.769531 C 154.867188 146.300781 154.128906 146.703125 153.324219 146.984375 C 152.523438 147.261719 151.695312 147.402344 150.84375 147.402344 C 150.808594 147.804688 150.800781 148.207031 150.800781 148.613281 C 151.617188 148.6875 152.402344 148.886719 153.152344 149.214844 C 153.90625 149.542969 154.585938 149.980469 155.195312 150.53125 C 155.804688 151.082031 156.3125 151.714844 156.71875 152.429688 C 157.125 153.144531 157.410156 153.902344 157.570312 154.710938 C 157.730469 155.515625 157.761719 156.328125 157.660156 157.144531 C 157.558594 157.960938 157.328125 158.742188 156.976562 159.484375 C 156.621094 160.226562 156.160156 160.894531 155.59375 161.488281 C 155.023438 162.078125 154.375 162.566406 153.652344 162.949219 C 153.8125 163.335938 153.980469 163.71875 154.15625 164.101562 C 155.320312 163.746094 156.5 163.671875 157.695312 163.882812 C 158.890625 164.09375 159.976562 164.5625 160.949219 165.292969 C 160.0625 159.992188 159.613281 154.65625 159.601562 149.28125 C 159.601562 135.691406 172.578125 123.773438 187.375 123.773438 C 202.167969 123.773438 215.148438 135.691406 215.148438 149.28125 C 215.136719 154.65625 214.6875 159.992188 213.800781 165.292969 C 214.773438 164.5625 215.859375 164.09375 217.054688 163.882812 C 218.25 163.671875 219.429688 163.746094 220.59375 164.101562 C 220.769531 163.71875 220.9375 163.335938 221.101562 162.949219 C 220.375 162.566406 219.726562 162.078125 219.15625 161.488281 C 218.589844 160.894531 218.128906 160.226562 217.773438 159.484375 C 217.421875 158.742188 217.195312 157.960938 217.09375 157.144531 C 216.992188 156.328125 217.019531 155.519531 217.179688 154.710938 C 217.339844 153.902344 217.625 153.144531 218.03125 152.429688 C 218.4375 151.714844 218.945312 151.082031 219.554688 150.53125 C 220.164062 149.980469 220.84375 149.542969 221.597656 149.214844 C 222.347656 148.886719 223.132812 148.6875 223.949219 148.613281 C 223.949219 148.207031 223.941406 147.804688 223.925781 147.402344 C 223.089844 147.402344 222.277344 147.265625 221.484375 146.996094 C 220.695312 146.726562 219.96875 146.335938 219.304688 145.824219 C 218.640625 145.3125 218.074219 144.710938 217.609375 144.015625 C 217.140625 143.316406 216.796875 142.566406 216.578125 141.753906 C 216.464844 141.339844 216.390625 140.914062 216.347656 140.484375 C 216.308594 140.054688 216.304688 139.625 216.335938 139.191406 C 216.367188 138.761719 216.4375 138.335938 216.542969 137.917969 C 216.648438 137.5 216.785156 137.089844 216.960938 136.695312 C 217.132812 136.300781 217.339844 135.921875 217.578125 135.5625 C 217.816406 135.203125 218.085938 134.867188 218.382812 134.554688 C 218.675781 134.238281 218.996094 133.953125 219.34375 133.695312 C 219.6875 133.433594 220.050781 133.207031 220.433594 133.011719 C 220.261719 132.648438 220.085938 132.292969 219.90625 131.9375 C 219.519531 132.144531 219.117188 132.316406 218.703125 132.449219 C 218.289062 132.585938 217.863281 132.683594 217.433594 132.746094 C 217 132.808594 216.566406 132.835938 216.128906 132.820312 C 215.691406 132.808594 215.261719 132.757812 214.832031 132.671875 C 214.402344 132.582031 213.988281 132.460938 213.578125 132.300781 C 213.171875 132.140625 212.785156 131.945312 212.410156 131.71875 C 212.035156 131.492188 211.6875 131.234375 211.355469 130.945312 C 211.027344 130.65625 210.726562 130.339844 210.453125 130 C 210.175781 129.660156 209.933594 129.296875 209.71875 128.914062 C 209.507812 128.53125 209.328125 128.132812 209.183594 127.71875 C 209.042969 127.304688 208.933594 126.882812 208.863281 126.449219 C 208.792969 126.015625 208.757812 125.582031 208.761719 125.144531 C 208.765625 124.707031 208.804688 124.269531 208.882812 123.839844 C 208.960938 123.40625 209.078125 122.988281 209.226562 122.574219 C 209.378906 122.164062 209.5625 121.769531 209.78125 121.390625 C 210 121.011719 210.25 120.652344 210.53125 120.316406 C 210.21875 120.058594 209.90625 119.808594 209.585938 119.5625 C 209.332031 119.929688 209.046875 120.273438 208.730469 120.589844 C 208.414062 120.90625 208.074219 121.195312 207.707031 121.453125 C 207.339844 121.707031 206.953125 121.929688 206.546875 122.121094 C 206.140625 122.308594 205.722656 122.460938 205.289062 122.574219 C 204.859375 122.6875 204.417969 122.761719 203.972656 122.800781 C 203.527344 122.835938 203.082031 122.832031 202.636719 122.789062 C 202.195312 122.746094 201.753906 122.664062 201.324219 122.546875 C 200.894531 122.425781 200.476562 122.269531 200.074219 122.074219 C 199.671875 121.878906 199.289062 121.652344 198.925781 121.390625 C 198.5625 121.128906 198.226562 120.835938 197.914062 120.511719 C 197.601562 120.191406 197.324219 119.84375 197.070312 119.472656 C 196.820312 119.101562 196.605469 118.710938 196.425781 118.300781 C 196.242188 117.890625 196.097656 117.46875 195.992188 117.03125 C 195.882812 116.597656 195.816406 116.15625 195.785156 115.707031 C 195.757812 115.261719 195.765625 114.8125 195.816406 114.367188 C 195.863281 113.921875 195.953125 113.484375 196.078125 113.054688 C 195.683594 112.957031 195.285156 112.863281 194.882812 112.777344 C 194.816406 113.226562 194.710938 113.664062 194.566406 114.09375 C 194.425781 114.523438 194.246094 114.9375 194.027344 115.335938 C 193.808594 115.730469 193.558594 116.105469 193.273438 116.457031 C 192.992188 116.808594 192.675781 117.132812 192.335938 117.429688 C 191.992188 117.726562 191.628906 117.988281 191.238281 118.21875 C 190.851562 118.449219 190.445312 118.640625 190.019531 118.796875 C 189.597656 118.957031 189.164062 119.074219 188.71875 119.152344 C 188.273438 119.230469 187.828125 119.269531 187.375 119.269531 Z M 187.375 124.476562 C 175.753906 124.476562 165.28125 132 161.652344 141.835938 C 167.230469 134.722656 177.066406 130.226562 187.375 130.226562 C 197.679688 130.226562 207.519531 134.722656 213.097656 141.835938 C 209.46875 132 198.996094 124.472656 187.375 124.472656 Z M 187.375 130.925781 C 198.28125 130.925781 208.632812 136.046875 213.769531 143.976562 C 214.222656 145.714844 214.449219 147.484375 214.453125 149.285156 C 214.453125 160.539062 212.316406 171.207031 210.054688 177.539062 C 210.039062 177.566406 210.027344 177.59375 210.023438 177.625 C 209.722656 178.460938 209.421875 179.21875 209.125 179.890625 C 206.535156 185.695312 195.9375 200.96875 187.375 200.96875 C 178.8125 200.96875 168.214844 185.695312 165.628906 179.886719 C 165.328125 179.214844 165.027344 178.457031 164.726562 177.621094 C 164.722656 177.59375 164.710938 177.5625 164.695312 177.535156 C 162.433594 171.203125 160.296875 160.539062 160.296875 149.28125 C 160.300781 147.484375 160.527344 145.714844 160.980469 143.976562 C 166.117188 136.046875 176.472656 130.925781 187.375 130.925781 Z M 187.375 185.363281 C 187.621094 185.363281 187.847656 185.296875 188.054688 185.164062 C 188.613281 184.824219 189.21875 184.691406 189.867188 184.769531 C 189.964844 184.773438 190.046875 184.746094 190.117188 184.679688 C 190.191406 184.613281 190.230469 184.535156 190.234375 184.4375 C 190.238281 184.339844 190.207031 184.257812 190.144531 184.183594 C 190.078125 184.113281 189.996094 184.074219 189.902344 184.070312 C 189.105469 183.984375 188.363281 184.152344 187.683594 184.570312 C 187.476562 184.707031 187.273438 184.707031 187.066406 184.570312 C 186.382812 184.152344 185.644531 183.984375 184.847656 184.070312 C 184.75 184.074219 184.667969 184.113281 184.605469 184.183594 C 184.539062 184.257812 184.507812 184.339844 184.515625 184.4375 C 184.519531 184.535156 184.558594 184.613281 184.628906 184.679688 C 184.699219 184.746094 184.785156 184.773438 184.882812 184.769531 C 185.53125 184.691406 186.132812 184.824219 186.691406 185.164062 C 186.902344 185.296875 187.128906 185.363281 187.375 185.363281 Z M 187.375 182.230469 C 187.683594 182.203125 187.949219 182.085938 188.179688 181.878906 C 188.320312 181.777344 188.453125 181.660156 188.582031 181.542969 C 188.660156 181.476562 188.734375 181.410156 188.808594 181.347656 C 189.550781 180.742188 190.777344 181.34375 192.203125 182.039062 C 193.4375 182.644531 194.792969 183.308594 196.144531 183.324219 C 195.433594 183.738281 194.667969 183.992188 193.851562 184.085938 C 193.75 184.097656 193.671875 184.140625 193.609375 184.21875 C 193.546875 184.292969 193.523438 184.382812 193.535156 184.480469 C 193.550781 184.578125 193.597656 184.660156 193.675781 184.71875 C 193.753906 184.777344 193.84375 184.796875 193.941406 184.78125 C 195.417969 184.621094 196.683594 184.015625 197.738281 182.972656 C 197.878906 182.835938 197.894531 182.6875 197.789062 182.527344 C 197.679688 182.367188 197.539062 182.324219 197.363281 182.398438 C 195.828125 183.039062 194.066406 182.175781 192.507812 181.410156 C 190.9375 180.640625 189.453125 179.914062 188.367188 180.808594 C 188.285156 180.878906 188.207031 180.949219 188.125 181.019531 C 188.003906 181.121094 187.886719 181.226562 187.765625 181.320312 C 187.722656 181.386719 187.664062 181.4375 187.597656 181.476562 C 187.527344 181.511719 187.453125 181.53125 187.375 181.53125 C 187.296875 181.53125 187.222656 181.511719 187.152344 181.476562 C 187.085938 181.4375 187.027344 181.386719 186.984375 181.320312 C 186.859375 181.226562 186.742188 181.121094 186.628906 181.019531 C 186.546875 180.949219 186.464844 180.878906 186.382812 180.808594 C 185.296875 179.917969 183.8125 180.644531 182.242188 181.410156 C 180.6875 182.175781 178.921875 183.039062 177.390625 182.398438 C 177.210938 182.324219 177.070312 182.367188 176.964844 182.527344 C 176.859375 182.6875 176.875 182.835938 177.011719 182.972656 C 178.070312 184.015625 179.335938 184.621094 180.808594 184.78125 C 180.902344 184.792969 180.988281 184.769531 181.066406 184.710938 C 181.140625 184.652344 181.1875 184.574219 181.199219 184.480469 C 181.214844 184.382812 181.191406 184.296875 181.132812 184.222656 C 181.074219 184.144531 180.996094 184.097656 180.902344 184.085938 C 180.085938 183.992188 179.320312 183.738281 178.609375 183.324219 C 179.960938 183.308594 181.316406 182.644531 182.550781 182.039062 C 183.972656 181.34375 185.203125 180.742188 185.941406 181.347656 C 186.019531 181.410156 186.09375 181.476562 186.167969 181.542969 C 186.300781 181.660156 186.433594 181.777344 186.574219 181.878906 C 186.800781 182.085938 187.070312 182.203125 187.375 182.230469 Z M 204.925781 158.914062 C 205.066406 158.914062 205.167969 158.851562 205.234375 158.722656 C 205.300781 158.597656 205.292969 158.476562 205.210938 158.363281 C 205.136719 158.257812 205.0625 158.160156 204.976562 158.0625 C 204.914062 157.988281 204.835938 157.949219 204.738281 157.941406 C 204.640625 157.933594 204.554688 157.960938 204.480469 158.027344 C 204.410156 158.089844 204.367188 158.171875 204.363281 158.269531 C 204.355469 158.367188 204.386719 158.453125 204.453125 158.523438 C 204.519531 158.601562 204.582031 158.679688 204.640625 158.765625 C 204.707031 158.863281 204.804688 158.914062 204.925781 158.914062 Z M 195.699219 158.660156 C 195.78125 158.660156 195.855469 158.632812 195.921875 158.578125 C 196.421875 158.199219 196.960938 157.890625 197.535156 157.648438 C 198.113281 157.40625 198.710938 157.238281 199.328125 157.148438 C 199.949219 157.054688 200.570312 157.042969 201.191406 157.105469 C 201.8125 157.171875 202.417969 157.3125 203.003906 157.527344 C 203.09375 157.5625 203.179688 157.558594 203.265625 157.519531 C 203.351562 157.484375 203.414062 157.421875 203.449219 157.332031 C 203.484375 157.246094 203.484375 157.160156 203.449219 157.070312 C 203.417969 156.984375 203.355469 156.921875 203.273438 156.882812 C 202.625 156.636719 201.960938 156.480469 201.277344 156.40625 C 200.589844 156.332031 199.90625 156.347656 199.222656 156.449219 C 198.542969 156.550781 197.882812 156.734375 197.25 157.003906 C 196.613281 157.273438 196.023438 157.617188 195.476562 158.039062 C 195.351562 158.144531 195.316406 158.273438 195.371094 158.425781 C 195.425781 158.582031 195.535156 158.660156 195.699219 158.660156 Z M 197.089844 95.449219 C 197.402344 95.449219 197.699219 95.386719 197.988281 95.269531 C 198.277344 95.148438 198.53125 94.980469 198.75 94.757812 C 198.972656 94.535156 199.140625 94.28125 199.261719 93.992188 C 199.378906 93.703125 199.4375 93.402344 199.4375 93.089844 C 199.4375 92.777344 199.378906 92.476562 199.261719 92.1875 C 199.140625 91.898438 198.972656 91.644531 198.75 91.425781 C 198.53125 91.203125 198.277344 91.03125 197.988281 90.914062 C 197.699219 90.792969 197.402344 90.734375 197.089844 90.734375 C 196.777344 90.734375 196.480469 90.792969 196.191406 90.914062 C 195.902344 91.03125 195.648438 91.203125 195.429688 91.421875 C 195.207031 91.644531 195.039062 91.898438 194.917969 92.1875 C 194.800781 92.476562 194.742188 92.777344 194.742188 93.089844 C 194.742188 93.402344 194.800781 93.703125 194.921875 93.992188 C 195.039062 94.28125 195.210938 94.535156 195.429688 94.757812 C 195.648438 94.976562 195.902344 95.148438 196.191406 95.269531 C 196.480469 95.386719 196.777344 95.449219 197.089844 95.449219 Z M 197.089844 91.433594 C 196.871094 91.433594 196.660156 91.476562 196.457031 91.558594 C 196.253906 91.644531 196.078125 91.765625 195.921875 91.917969 C 195.765625 92.074219 195.648438 92.253906 195.5625 92.457031 C 195.480469 92.660156 195.4375 92.871094 195.4375 93.089844 C 195.4375 93.308594 195.480469 93.523438 195.5625 93.726562 C 195.648438 93.929688 195.765625 94.105469 195.921875 94.261719 C 196.078125 94.417969 196.253906 94.539062 196.457031 94.621094 C 196.660156 94.707031 196.871094 94.746094 197.089844 94.746094 C 197.308594 94.746094 197.519531 94.707031 197.722656 94.621094 C 197.921875 94.539062 198.101562 94.417969 198.257812 94.261719 C 198.410156 94.105469 198.53125 93.929688 198.613281 93.726562 C 198.699219 93.523438 198.738281 93.308594 198.738281 93.089844 C 198.738281 92.871094 198.699219 92.660156 198.613281 92.457031 C 198.53125 92.253906 198.410156 92.074219 198.257812 91.917969 C 198.101562 91.761719 197.921875 91.644531 197.722656 91.558594 C 197.519531 91.472656 197.308594 91.433594 197.089844 91.429688 Z M 211.625 104.621094 C 211.902344 104.621094 212.171875 104.566406 212.429688 104.460938 C 212.6875 104.355469 212.914062 104.203125 213.109375 104.003906 C 213.308594 103.808594 213.460938 103.582031 213.566406 103.324219 C 213.671875 103.0625 213.726562 102.796875 213.726562 102.515625 C 213.726562 102.238281 213.675781 101.96875 213.566406 101.710938 C 213.460938 101.449219 213.308594 101.222656 213.113281 101.023438 C 212.917969 100.828125 212.691406 100.675781 212.433594 100.566406 C 212.175781 100.460938 211.90625 100.40625 211.628906 100.40625 C 211.351562 100.40625 211.082031 100.460938 210.824219 100.566406 C 210.566406 100.671875 210.339844 100.824219 210.144531 101.023438 C 209.945312 101.222656 209.796875 101.449219 209.6875 101.707031 C 209.582031 101.964844 209.527344 102.234375 209.527344 102.515625 C 209.527344 102.792969 209.582031 103.0625 209.6875 103.320312 C 209.796875 103.578125 209.945312 103.804688 210.144531 104 C 210.339844 104.199219 210.566406 104.351562 210.824219 104.457031 C 211.078125 104.566406 211.347656 104.621094 211.625 104.621094 Z M 211.625 101.109375 C 211.4375 101.109375 211.261719 101.144531 211.089844 101.214844 C 210.917969 101.285156 210.765625 101.386719 210.632812 101.519531 C 210.503906 101.652344 210.402344 101.804688 210.328125 101.976562 C 210.257812 102.148438 210.222656 102.328125 210.222656 102.515625 C 210.222656 102.699219 210.257812 102.878906 210.328125 103.050781 C 210.402344 103.226562 210.503906 103.375 210.632812 103.507812 C 210.765625 103.640625 210.917969 103.742188 211.089844 103.8125 C 211.261719 103.886719 211.4375 103.921875 211.625 103.921875 C 211.808594 103.921875 211.988281 103.882812 212.160156 103.8125 C 212.332031 103.742188 212.484375 103.640625 212.617188 103.507812 C 212.746094 103.375 212.847656 103.222656 212.917969 103.050781 C 212.988281 102.878906 213.027344 102.699219 213.023438 102.515625 C 213.023438 102.328125 212.988281 102.148438 212.917969 101.976562 C 212.847656 101.804688 212.746094 101.652344 212.613281 101.519531 C 212.484375 101.386719 212.332031 101.285156 212.160156 101.214844 C 211.988281 101.144531 211.808594 101.109375 211.625 101.109375 Z M 223.082031 109.679688 C 223.082031 108.941406 223.304688 108.277344 223.75 107.691406 C 224.4375 106.679688 225.328125 105.898438 226.414062 105.347656 C 226.214844 104.53125 225.761719 103.910156 225.046875 103.480469 C 224.859375 104.289062 224.121094 105.035156 223.402344 105.761719 C 222.957031 106.167969 222.566406 106.625 222.234375 107.128906 C 221.757812 107.988281 222.328125 108.925781 223.078125 109.679688 Z M 225.589844 111.460938 C 226.546875 111.925781 227.621094 112.160156 228.277344 111.421875 C 228.640625 110.9375 228.941406 110.417969 229.175781 109.863281 C 229.617188 108.941406 230.074219 107.996094 230.773438 107.554688 C 230.132812 107.019531 229.394531 106.792969 228.566406 106.875 C 228.410156 108.085938 227.96875 109.1875 227.246094 110.171875 C 226.835938 110.785156 226.285156 111.214844 225.589844 111.460938 Z M 227.988281 105.40625 C 227.855469 105.464844 227.710938 105.527344 227.5625 105.59375 C 226.21875 106.082031 225.136719 106.917969 224.320312 108.09375 C 223.96875 108.558594 223.789062 109.082031 223.78125 109.667969 C 223.777344 110.082031 223.941406 110.417969 224.273438 110.667969 C 224.941406 111.144531 225.976562 110.757812 226.675781 109.765625 C 227.511719 108.601562 227.9375 107.304688 227.953125 105.871094 C 227.960938 105.707031 227.96875 105.554688 227.988281 105.40625 Z M 226.445312 131.792969 C 226.375 131.765625 226.304688 131.738281 226.234375 131.703125 C 225.324219 131.261719 224.691406 130.566406 224.335938 129.617188 C 223.6875 128.0625 223.539062 126.464844 223.890625 124.820312 C 223.425781 124.601562 222.933594 124.496094 222.421875 124.507812 C 221.910156 124.515625 221.421875 124.636719 220.964844 124.867188 C 221.910156 125.59375 222.175781 127.082031 222.417969 128.417969 C 222.507812 129.226562 222.722656 130 223.054688 130.742188 C 223.695312 131.863281 224.703125 132.203125 226.445312 131.792969 Z M 230.433594 130.175781 C 231.972656 129.261719 232.464844 128.3125 232.148438 127.058594 C 231.875 126.292969 231.492188 125.585938 231 124.941406 C 230.25 123.8125 229.414062 122.554688 229.589844 121.375 C 229.101562 121.527344 228.667969 121.777344 228.292969 122.128906 C 227.917969 122.480469 227.636719 122.894531 227.453125 123.378906 C 228.84375 124.316406 229.839844 125.570312 230.445312 127.140625 C 230.847656 128.070312 230.875 129.011719 230.527344 129.964844 C 230.496094 130.035156 230.464844 130.109375 230.433594 130.175781 Z M 225.117188 122.726562 C 225.066406 123.035156 224.972656 123.371094 224.875 123.742188 C 224.554688 124.652344 224.402344 125.59375 224.421875 126.558594 C 224.441406 127.527344 224.628906 128.457031 224.984375 129.355469 C 225.265625 130.136719 225.78125 130.707031 226.523438 131.070312 C 226.832031 131.210938 227.160156 131.285156 227.503906 131.292969 C 227.84375 131.300781 228.171875 131.242188 228.488281 131.113281 C 228.808594 130.984375 229.085938 130.796875 229.328125 130.554688 C 229.566406 130.3125 229.75 130.027344 229.875 129.710938 C 230.160156 128.929688 230.132812 128.164062 229.796875 127.40625 C 229.433594 126.511719 228.921875 125.710938 228.269531 125 C 227.613281 124.292969 226.855469 123.71875 225.996094 123.285156 C 225.664062 123.089844 225.367188 122.910156 225.117188 122.722656 Z M 226.601562 170.335938 C 226.84375 169.253906 227.441406 168.4375 228.398438 167.886719 C 229.816406 166.988281 231.363281 166.582031 233.039062 166.660156 C 233.175781 166.164062 233.199219 165.664062 233.109375 165.15625 C 233.015625 164.648438 232.816406 164.1875 232.515625 163.773438 C 231.957031 164.824219 230.535156 165.335938 229.261719 165.789062 C 228.484375 166.015625 227.757812 166.351562 227.082031 166.800781 C 226.078125 167.617188 225.910156 168.675781 226.597656 170.332031 Z M 229.761719 174.140625 C 229.445312 174.140625 229.136719 174.097656 228.832031 174.011719 C 229.984375 175.386719 231 175.722656 232.1875 175.203125 C 232.894531 174.808594 233.523438 174.3125 234.078125 173.722656 C 235.066406 172.792969 236.164062 171.757812 237.351562 171.742188 C 237.125 171.28125 236.808594 170.894531 236.398438 170.578125 C 235.992188 170.265625 235.539062 170.054688 235.035156 169.953125 C 234.339844 171.484375 233.269531 172.675781 231.824219 173.53125 C 231.191406 173.929688 230.503906 174.128906 229.757812 174.136719 Z M 235.296875 167.535156 C 234.984375 167.535156 234.640625 167.5 234.257812 167.460938 C 233.3125 167.292969 232.363281 167.292969 231.417969 167.46875 C 230.46875 167.644531 229.582031 167.984375 228.757812 168.480469 C 227.113281 169.488281 226.929688 171.136719 227.601562 172.242188 C 228.273438 173.347656 229.816406 173.941406 231.460938 172.933594 C 232.28125 172.425781 232.988281 171.789062 233.578125 171.027344 C 234.167969 170.261719 234.605469 169.417969 234.890625 168.496094 C 235.027344 168.136719 235.15625 167.8125 235.296875 167.535156 Z M 243.039062 151.453125 C 240.382812 150.613281 236.484375 151.332031 234.347656 153.167969 C 233.601562 153.953125 233.070312 154.863281 232.753906 155.898438 C 232.675781 156.09375 232.597656 156.289062 232.519531 156.476562 C 233.414062 155.710938 234.390625 155.066406 235.449219 154.550781 C 235.539062 154.511719 235.628906 154.511719 235.714844 154.550781 C 235.804688 154.585938 235.867188 154.648438 235.90625 154.738281 C 235.941406 154.828125 235.941406 154.917969 235.90625 155.007812 C 235.867188 155.09375 235.804688 155.160156 235.714844 155.195312 C 234.472656 155.84375 233.324219 156.636719 232.277344 157.570312 C 232.636719 157.5625 232.996094 157.574219 233.371094 157.589844 C 234.472656 157.703125 235.546875 157.585938 236.597656 157.234375 C 238.191406 156.613281 239.539062 155.066406 240.730469 153.703125 C 241.394531 152.847656 242.167969 152.097656 243.039062 151.453125 Z M 239.804688 132.609375 C 239.136719 132.648438 238.496094 132.800781 237.882812 133.070312 C 237.265625 133.339844 236.71875 133.707031 236.234375 134.171875 C 235.75 134.636719 235.359375 135.171875 235.066406 135.773438 C 234.769531 136.378906 234.589844 137.015625 234.519531 137.683594 C 237.078125 137.199219 238.171875 135.316406 239.066406 133.785156 C 239.289062 133.382812 239.535156 132.988281 239.804688 132.609375 Z M 222.800781 181.71875 C 222.023438 184.324219 223.007812 185.09375 224.238281 186.0625 C 224.730469 186.421875 225.179688 186.828125 225.582031 187.285156 C 225.898438 185.980469 225.730469 184.738281 225.078125 183.566406 C 224.847656 183.109375 224.535156 182.71875 224.136719 182.398438 C 223.738281 182.078125 223.292969 181.851562 222.796875 181.722656 Z M 215.230469 116.949219 C 215.011719 117.015625 214.796875 117.078125 214.582031 117.136719 C 214.964844 118.074219 215.550781 118.859375 216.339844 119.492188 C 217.128906 120.125 218.019531 120.523438 219.015625 120.6875 C 218.714844 120.285156 218.449219 119.855469 218.226562 119.40625 C 217.578125 118.203125 216.960938 117.066406 215.230469 116.949219 Z M 216.378906 110.199219 C 215.90625 110.527344 215.398438 110.78125 214.851562 110.957031 C 214.019531 111.265625 213.304688 111.535156 212.933594 112.484375 C 212.582031 113.289062 212.558594 114.097656 212.867188 114.917969 C 213.050781 115.460938 213.125 116.019531 213.082031 116.59375 C 213.617188 116.257812 214.097656 115.855469 214.523438 115.390625 C 214.949219 114.921875 215.308594 114.410156 215.597656 113.847656 C 215.886719 113.285156 216.097656 112.695312 216.230469 112.074219 C 216.363281 111.457031 216.414062 110.832031 216.378906 110.199219 Z M 195.464844 101.359375 C 195.554688 102.304688 195.359375 103.195312 194.886719 104.019531 C 194.4375 104.886719 193.78125 106.304688 193.027344 108.15625 C 195.671875 106.441406 198.535156 107.222656 201.171875 108.171875 C 202.15625 107.667969 202.804688 106.886719 203.125 105.828125 C 203.949219 103.25 202.738281 99.71875 201.742188 97.722656 C 200.773438 98.753906 199.609375 99.457031 198.246094 99.835938 C 197.199219 100.125 196.273438 100.632812 195.464844 101.359375 Z M 192.515625 109.4375 C 192.257812 110.101562 191.992188 110.808594 191.71875 111.558594 C 195.953125 112.050781 199.980469 113.246094 203.800781 115.140625 C 205.210938 114.816406 207.761719 112.386719 208.097656 109.902344 C 206.328125 110.828125 204.132812 110.015625 201.824219 109.15625 C 198.667969 107.988281 195.402344 106.777344 192.515625 109.4375 Z M 217.269531 193.1875 C 217.203125 193.1875 217.144531 193.171875 217.089844 193.140625 C 215.984375 192.515625 214.847656 191.953125 213.679688 191.457031 C 210.742188 190.140625 207.957031 188.894531 206.71875 185.539062 C 206.402344 186.023438 206.070312 186.519531 205.722656 187.023438 C 205.78125 190.5625 209.625 192.175781 213.695312 193.882812 C 216.714844 195.152344 219.835938 196.460938 221.636719 198.664062 C 221.964844 199.03125 222.230469 199.4375 222.4375 199.882812 C 222.640625 200.328125 222.78125 200.792969 222.851562 201.28125 C 222.917969 201.765625 222.917969 202.253906 222.84375 202.738281 C 222.769531 203.222656 222.628906 203.6875 222.417969 204.132812 C 222.167969 204.664062 221.835938 205.140625 221.429688 205.566406 C 222.308594 205.175781 223.082031 204.628906 223.738281 203.925781 C 224.386719 203.195312 224.851562 202.359375 225.136719 201.421875 C 225.421875 200.488281 225.5 199.535156 225.375 198.5625 C 225 193.746094 221.015625 190.535156 217.160156 187.425781 C 213.957031 184.839844 210.910156 182.386719 210.179688 179.175781 C 210.035156 179.527344 209.894531 179.863281 209.753906 180.175781 C 209.011719 181.769531 208.160156 183.304688 207.207031 184.78125 C 208.238281 188.253906 210.894531 189.441406 213.964844 190.816406 C 215.15625 191.324219 216.3125 191.898438 217.441406 192.535156 C 217.597656 192.628906 217.648438 192.757812 217.601562 192.933594 C 217.554688 193.105469 217.441406 193.191406 217.261719 193.1875 Z M 220.015625 195.265625 C 220.171875 195.265625 220.277344 195.191406 220.339844 195.046875 C 220.398438 194.898438 220.371094 194.773438 220.257812 194.664062 C 220.105469 194.515625 219.953125 194.371094 219.800781 194.230469 C 219.726562 194.167969 219.644531 194.140625 219.546875 194.144531 C 219.449219 194.148438 219.371094 194.1875 219.308594 194.261719 C 219.242188 194.332031 219.214844 194.417969 219.21875 194.515625 C 219.226562 194.609375 219.265625 194.691406 219.335938 194.753906 C 219.480469 194.886719 219.628906 195.023438 219.769531 195.164062 C 219.835938 195.230469 219.917969 195.261719 220.015625 195.261719 Z M 216.230469 202.503906 C 214.875 202.503906 213.5625 201.90625 212.171875 201.261719 C 210.238281 200.375 208.386719 199.523438 206.445312 200.257812 C 207.933594 200.382812 209.34375 201.523438 210.808594 202.710938 C 212.871094 204.382812 215.210938 206.277344 218.441406 206.277344 C 219.734375 206.277344 221.113281 205.269531 221.792969 203.832031 C 221.972656 203.449219 222.09375 203.046875 222.15625 202.625 C 222.214844 202.203125 222.21875 201.785156 222.15625 201.363281 C 222.09375 200.945312 221.972656 200.542969 221.792969 200.15625 C 221.613281 199.773438 221.382812 199.421875 221.101562 199.105469 C 220.683594 198.605469 220.214844 198.15625 219.695312 197.761719 C 219.996094 198.742188 219.898438 199.675781 219.390625 200.566406 C 219.058594 201.132812 218.613281 201.589844 218.054688 201.933594 C 217.492188 202.277344 216.882812 202.46875 216.230469 202.503906 Z M 193.804688 206.1875 C 193.742188 206.1875 193.683594 206.171875 193.628906 206.140625 C 193.578125 206.109375 193.535156 206.066406 193.503906 206.011719 C 193.472656 205.957031 193.457031 205.898438 193.457031 205.835938 C 193.457031 205.773438 193.472656 205.71875 193.503906 205.664062 C 193.625 205.453125 193.78125 205.148438 193.964844 204.773438 C 194.003906 204.683594 194.070312 204.621094 194.164062 204.585938 C 194.257812 204.554688 194.347656 204.558594 194.4375 204.601562 C 194.523438 204.648438 194.585938 204.714844 194.613281 204.808594 C 194.644531 204.902344 194.636719 204.996094 194.589844 205.082031 C 194.398438 205.472656 194.234375 205.792969 194.113281 206.011719 C 194.042969 206.128906 193.941406 206.1875 193.804688 206.1875 Z M 213.613281 166.363281 C 213.011719 169.847656 212.171875 173.269531 211.101562 176.636719 C 214.992188 173.316406 218.054688 169.351562 220.292969 164.742188 C 219.710938 164.574219 219.121094 164.484375 218.519531 164.472656 C 217.917969 164.460938 217.324219 164.523438 216.738281 164.664062 C 216.152344 164.808594 215.597656 165.023438 215.066406 165.3125 C 214.535156 165.597656 214.054688 165.949219 213.613281 166.363281 Z M 221.367188 162.300781 C 223.015625 158.132812 223.875 153.804688 223.945312 149.320312 C 223.210938 149.394531 222.503906 149.582031 221.828125 149.882812 C 221.15625 150.183594 220.542969 150.582031 219.996094 151.078125 C 219.449219 151.578125 218.992188 152.148438 218.628906 152.792969 C 218.265625 153.4375 218.011719 154.125 217.867188 154.851562 C 217.722656 155.578125 217.695312 156.3125 217.785156 157.046875 C 217.875 157.78125 218.078125 158.484375 218.390625 159.15625 C 218.707031 159.828125 219.117188 160.429688 219.628906 160.96875 C 220.136719 161.503906 220.714844 161.949219 221.367188 162.300781 Z M 223.898438 146.707031 C 223.65625 142.15625 222.597656 137.804688 220.730469 133.652344 C 220.046875 134.007812 219.4375 134.46875 218.910156 135.03125 C 218.378906 135.589844 217.953125 136.222656 217.636719 136.929688 C 217.316406 137.632812 217.121094 138.371094 217.046875 139.140625 C 216.976562 139.914062 217.03125 140.671875 217.214844 141.425781 C 217.398438 142.175781 217.695312 142.878906 218.113281 143.53125 C 218.53125 144.179688 219.042969 144.746094 219.648438 145.222656 C 220.253906 145.703125 220.921875 146.070312 221.648438 146.324219 C 222.378906 146.578125 223.128906 146.703125 223.898438 146.707031 Z M 219.582031 131.324219 C 217.398438 127.273438 214.5625 123.753906 211.070312 120.769531 C 210.554688 121.382812 210.160156 122.066406 209.886719 122.820312 C 209.609375 123.574219 209.46875 124.351562 209.460938 125.152344 C 209.453125 125.953125 209.582031 126.734375 209.847656 127.492188 C 210.109375 128.25 210.492188 128.9375 210.996094 129.5625 C 211.5 130.1875 212.089844 130.707031 212.773438 131.121094 C 213.457031 131.539062 214.191406 131.828125 214.972656 131.988281 C 215.757812 132.148438 216.542969 132.171875 217.335938 132.058594 C 218.125 131.941406 218.875 131.699219 219.582031 131.324219 Z M 209.03125 119.144531 C 205.3125 116.394531 201.21875 114.421875 196.753906 113.230469 C 196.640625 113.621094 196.558594 114.019531 196.511719 114.425781 C 196.464844 114.832031 196.457031 115.238281 196.480469 115.644531 C 196.507812 116.054688 196.566406 116.457031 196.664062 116.851562 C 196.761719 117.25 196.890625 117.632812 197.058594 118.007812 C 197.222656 118.382812 197.417969 118.738281 197.644531 119.078125 C 197.871094 119.414062 198.128906 119.730469 198.410156 120.023438 C 198.695312 120.316406 199 120.582031 199.332031 120.824219 C 199.660156 121.0625 200.011719 121.269531 200.378906 121.445312 C 200.742188 121.621094 201.125 121.765625 201.515625 121.875 C 201.90625 121.984375 202.304688 122.058594 202.710938 122.097656 C 203.117188 122.136719 203.523438 122.136719 203.925781 122.105469 C 204.332031 122.070312 204.734375 122 205.125 121.898438 C 205.519531 121.792969 205.902344 121.652344 206.269531 121.480469 C 206.640625 121.308594 206.988281 121.105469 207.324219 120.871094 C 207.65625 120.636719 207.964844 120.375 208.253906 120.085938 C 208.539062 119.792969 208.796875 119.480469 209.03125 119.144531 Z M 187.375 190.722656 C 188.25 190.722656 189.109375 190.605469 189.957031 190.375 C 190.710938 190.171875 191.425781 189.871094 192.101562 189.472656 C 192.183594 189.421875 192.234375 189.351562 192.257812 189.257812 C 192.28125 189.164062 192.269531 189.074219 192.21875 188.992188 C 192.167969 188.910156 192.097656 188.855469 192.003906 188.832031 C 191.910156 188.808594 191.824219 188.820312 191.742188 188.871094 C 191.121094 189.238281 190.464844 189.511719 189.769531 189.699219 C 188.171875 190.136719 186.574219 190.136719 184.976562 189.699219 C 184.28125 189.511719 183.625 189.234375 183.007812 188.871094 C 182.925781 188.820312 182.835938 188.808594 182.742188 188.832031 C 182.648438 188.855469 182.578125 188.910156 182.527344 188.992188 C 182.480469 189.074219 182.464844 189.164062 182.488281 189.257812 C 182.511719 189.351562 182.566406 189.421875 182.648438 189.472656 C 183.324219 189.871094 184.035156 190.171875 184.792969 190.375 C 185.636719 190.605469 186.496094 190.722656 187.375 190.722656 Z M 187.375 176.261719 C 188.167969 176.261719 189.164062 175.734375 190.042969 175.269531 C 190.523438 174.96875 191.039062 174.746094 191.589844 174.609375 C 191.683594 174.609375 191.765625 174.574219 191.835938 174.507812 C 191.902344 174.4375 191.9375 174.355469 191.9375 174.261719 C 191.9375 174.164062 191.902344 174.082031 191.835938 174.011719 C 191.765625 173.945312 191.683594 173.910156 191.589844 173.910156 C 190.914062 174.027344 190.289062 174.273438 189.714844 174.648438 C 188.996094 175.109375 188.214844 175.414062 187.375 175.558594 C 186.535156 175.414062 185.753906 175.109375 185.03125 174.648438 C 184.457031 174.273438 183.835938 174.027344 183.160156 173.910156 C 183.0625 173.910156 182.980469 173.945312 182.914062 174.011719 C 182.847656 174.082031 182.8125 174.164062 182.8125 174.261719 C 182.8125 174.355469 182.847656 174.4375 182.914062 174.507812 C 182.980469 174.574219 183.0625 174.609375 183.160156 174.609375 C 183.710938 174.746094 184.226562 174.96875 184.707031 175.269531 C 185.585938 175.734375 186.582031 176.261719 187.375 176.261719 Z M 200.53125 164.007812 C 202.398438 164.039062 204.078125 163.484375 205.5625 162.347656 C 205.636719 162.289062 205.679688 162.210938 205.6875 162.117188 C 205.699219 162.019531 205.675781 161.933594 205.613281 161.859375 C 205.554688 161.785156 205.480469 161.742188 205.382812 161.730469 C 205.289062 161.71875 205.203125 161.742188 205.128906 161.800781 C 202.449219 163.9375 197.894531 163.746094 195.183594 161.378906 C 194.226562 160.546875 192.933594 161.3125 192.878906 161.34375 C 192.796875 161.394531 192.746094 161.464844 192.722656 161.558594 C 192.699219 161.652344 192.710938 161.742188 192.761719 161.824219 C 192.8125 161.90625 192.882812 161.960938 192.976562 161.984375 C 193.070312 162.007812 193.15625 161.996094 193.238281 161.945312 C 193.25 161.941406 194.148438 161.410156 194.722656 161.910156 C 195.535156 162.59375 196.441406 163.117188 197.441406 163.480469 C 198.441406 163.839844 199.46875 164.015625 200.53125 164.007812 Z M 193.195312 152.816406 C 193.289062 152.816406 193.367188 152.785156 193.433594 152.71875 C 194.46875 151.664062 195.671875 150.859375 197.042969 150.308594 C 198.414062 149.757812 199.839844 149.503906 201.316406 149.550781 C 202.542969 149.589844 203.71875 149.863281 204.839844 150.367188 C 205.957031 150.875 206.941406 151.578125 207.78125 152.476562 C 207.84375 152.550781 207.925781 152.59375 208.023438 152.601562 C 208.121094 152.609375 208.207031 152.582031 208.28125 152.515625 C 208.355469 152.449219 208.394531 152.367188 208.398438 152.269531 C 208.402344 152.167969 208.371094 152.082031 208.304688 152.011719 C 207.398438 151.042969 206.34375 150.285156 205.136719 149.738281 C 203.929688 149.1875 202.667969 148.894531 201.34375 148.851562 C 199.773438 148.800781 198.257812 149.066406 196.796875 149.652344 C 195.339844 150.234375 194.054688 151.089844 192.953125 152.210938 C 192.839844 152.320312 192.816406 152.449219 192.871094 152.59375 C 192.929688 152.738281 193.035156 152.8125 193.191406 152.8125 Z M 209.230469 154.539062 C 209.351562 154.539062 209.445312 154.492188 209.515625 154.390625 C 209.582031 154.292969 209.597656 154.183594 209.554688 154.070312 C 209.5 153.917969 209.4375 153.765625 209.371094 153.617188 C 209.328125 153.53125 209.261719 153.476562 209.171875 153.445312 C 209.082031 153.414062 208.996094 153.417969 208.910156 153.457031 C 208.824219 153.496094 208.765625 153.5625 208.730469 153.648438 C 208.699219 153.738281 208.699219 153.828125 208.738281 153.914062 C 208.796875 154.042969 208.851562 154.175781 208.902344 154.308594 C 208.957031 154.464844 209.066406 154.539062 209.230469 154.539062 Z M 169.824219 158.914062 C 169.945312 158.914062 170.039062 158.863281 170.109375 158.765625 C 170.167969 158.679688 170.230469 158.601562 170.296875 158.523438 C 170.367188 158.453125 170.402344 158.367188 170.398438 158.265625 C 170.394531 158.164062 170.355469 158.082031 170.277344 158.015625 C 170.203125 157.949219 170.117188 157.917969 170.015625 157.929688 C 169.914062 157.9375 169.832031 157.984375 169.773438 158.0625 C 169.691406 158.160156 169.613281 158.257812 169.539062 158.359375 C 169.460938 158.476562 169.453125 158.597656 169.515625 158.722656 C 169.582031 158.847656 169.683594 158.910156 169.824219 158.910156 Z M 179.046875 158.660156 C 179.210938 158.660156 179.320312 158.582031 179.375 158.425781 C 179.433594 158.273438 179.398438 158.144531 179.269531 158.039062 C 178.722656 157.617188 178.132812 157.273438 177.496094 157.003906 C 176.863281 156.734375 176.203125 156.550781 175.523438 156.449219 C 174.839844 156.347656 174.15625 156.332031 173.472656 156.40625 C 172.785156 156.480469 172.121094 156.636719 171.476562 156.882812 C 171.390625 156.921875 171.328125 156.984375 171.296875 157.070312 C 171.261719 157.160156 171.261719 157.246094 171.296875 157.332031 C 171.335938 157.421875 171.394531 157.484375 171.480469 157.519531 C 171.566406 157.558594 171.65625 157.5625 171.742188 157.527344 C 172.328125 157.3125 172.933594 157.171875 173.554688 157.105469 C 174.179688 157.042969 174.796875 157.054688 175.417969 157.148438 C 176.035156 157.238281 176.632812 157.40625 177.210938 157.648438 C 177.789062 157.890625 178.324219 158.199219 178.824219 158.578125 C 178.890625 158.632812 178.96875 158.660156 179.054688 158.660156 Z M 177.660156 95.449219 C 177.972656 95.449219 178.273438 95.386719 178.558594 95.269531 C 178.847656 95.148438 179.101562 94.980469 179.324219 94.757812 C 179.542969 94.535156 179.710938 94.28125 179.832031 93.992188 C 179.953125 93.703125 180.011719 93.402344 180.011719 93.089844 C 180.011719 92.777344 179.953125 92.476562 179.832031 92.1875 C 179.714844 91.898438 179.542969 91.644531 179.324219 91.425781 C 179.101562 91.203125 178.847656 91.03125 178.5625 90.914062 C 178.273438 90.792969 177.972656 90.734375 177.660156 90.734375 C 177.351562 90.734375 177.050781 90.792969 176.761719 90.914062 C 176.476562 91.03125 176.222656 91.203125 176 91.421875 C 175.78125 91.644531 175.609375 91.898438 175.492188 92.1875 C 175.371094 92.476562 175.3125 92.777344 175.3125 93.089844 C 175.3125 93.402344 175.375 93.703125 175.492188 93.992188 C 175.613281 94.28125 175.78125 94.535156 176 94.757812 C 176.222656 94.976562 176.476562 95.148438 176.761719 95.269531 C 177.050781 95.386719 177.351562 95.449219 177.660156 95.449219 Z M 177.660156 91.433594 C 177.441406 91.433594 177.230469 91.476562 177.03125 91.558594 C 176.828125 91.644531 176.648438 91.765625 176.496094 91.917969 C 176.339844 92.074219 176.21875 92.253906 176.136719 92.457031 C 176.054688 92.660156 176.011719 92.871094 176.011719 93.089844 C 176.011719 93.308594 176.054688 93.523438 176.136719 93.726562 C 176.222656 93.929688 176.339844 94.105469 176.496094 94.261719 C 176.648438 94.417969 176.828125 94.539062 177.03125 94.621094 C 177.234375 94.707031 177.441406 94.746094 177.660156 94.746094 C 177.882812 94.746094 178.089844 94.707031 178.292969 94.621094 C 178.496094 94.539062 178.675781 94.417969 178.828125 94.261719 C 178.984375 94.105469 179.101562 93.925781 179.1875 93.726562 C 179.269531 93.523438 179.3125 93.308594 179.3125 93.089844 C 179.3125 92.871094 179.269531 92.660156 179.1875 92.457031 C 179.101562 92.253906 178.984375 92.074219 178.828125 91.917969 C 178.675781 91.761719 178.496094 91.640625 178.292969 91.558594 C 178.089844 91.472656 177.878906 91.433594 177.660156 91.429688 Z M 163.125 104.621094 C 163.40625 104.621094 163.671875 104.566406 163.929688 104.460938 C 164.1875 104.355469 164.414062 104.203125 164.613281 104.003906 C 164.808594 103.808594 164.960938 103.582031 165.070312 103.324219 C 165.175781 103.0625 165.230469 102.796875 165.230469 102.515625 C 165.230469 102.238281 165.175781 101.96875 165.070312 101.710938 C 164.964844 101.449219 164.8125 101.222656 164.617188 101.023438 C 164.417969 100.828125 164.191406 100.675781 163.933594 100.566406 C 163.675781 100.460938 163.410156 100.40625 163.132812 100.40625 C 162.851562 100.40625 162.585938 100.460938 162.328125 100.566406 C 162.070312 100.671875 161.84375 100.824219 161.644531 101.023438 C 161.449219 101.222656 161.296875 101.449219 161.191406 101.707031 C 161.085938 101.964844 161.03125 102.234375 161.03125 102.515625 C 161.03125 102.792969 161.085938 103.0625 161.191406 103.320312 C 161.296875 103.578125 161.449219 103.804688 161.644531 104 C 161.839844 104.199219 162.066406 104.351562 162.324219 104.457031 C 162.582031 104.566406 162.847656 104.621094 163.125 104.621094 Z M 163.125 101.109375 C 162.941406 101.109375 162.761719 101.144531 162.589844 101.214844 C 162.417969 101.285156 162.265625 101.386719 162.136719 101.519531 C 162.003906 101.652344 161.902344 101.804688 161.832031 101.976562 C 161.761719 102.148438 161.726562 102.328125 161.726562 102.515625 C 161.726562 102.699219 161.761719 102.878906 161.832031 103.050781 C 161.902344 103.226562 162.003906 103.375 162.136719 103.507812 C 162.265625 103.640625 162.417969 103.742188 162.589844 103.8125 C 162.761719 103.886719 162.941406 103.921875 163.125 103.921875 C 163.3125 103.921875 163.492188 103.882812 163.664062 103.8125 C 163.835938 103.742188 163.984375 103.640625 164.117188 103.507812 C 164.25 103.375 164.351562 103.222656 164.421875 103.050781 C 164.492188 102.878906 164.527344 102.699219 164.527344 102.515625 C 164.527344 102.328125 164.492188 102.148438 164.421875 101.976562 C 164.347656 101.804688 164.246094 101.652344 164.117188 101.519531 C 163.984375 101.386719 163.832031 101.285156 163.664062 101.214844 C 163.492188 101.144531 163.3125 101.109375 163.125 101.109375 Z M 151.667969 109.679688 C 152.421875 108.925781 152.992188 107.988281 152.515625 107.125 C 152.183594 106.621094 151.792969 106.167969 151.347656 105.761719 C 150.628906 105.035156 149.890625 104.292969 149.703125 103.476562 C 148.992188 103.910156 148.535156 104.53125 148.335938 105.34375 C 149.425781 105.894531 150.3125 106.675781 151 107.6875 C 151.445312 108.277344 151.667969 108.9375 151.671875 109.679688 Z M 149.160156 111.460938 C 148.46875 111.214844 147.917969 110.785156 147.507812 110.171875 C 146.785156 109.1875 146.34375 108.085938 146.1875 106.875 C 145.359375 106.792969 144.625 107.019531 143.980469 107.554688 C 144.683594 107.996094 145.136719 108.941406 145.578125 109.863281 C 145.8125 110.417969 146.113281 110.9375 146.476562 111.421875 C 147.128906 112.160156 148.203125 111.925781 149.164062 111.460938 Z M 146.761719 105.40625 C 146.777344 105.554688 146.785156 105.707031 146.796875 105.871094 C 146.8125 107.304688 147.238281 108.605469 148.074219 109.765625 C 148.773438 110.757812 149.8125 111.144531 150.480469 110.667969 C 150.8125 110.417969 150.976562 110.085938 150.972656 109.667969 C 150.964844 109.082031 150.785156 108.558594 150.433594 108.09375 C 149.613281 106.917969 148.535156 106.085938 147.191406 105.59375 C 147.042969 105.527344 146.902344 105.46875 146.765625 105.40625 Z M 148.304688 131.792969 C 150.042969 132.203125 151.054688 131.863281 151.695312 130.742188 C 152.027344 130 152.242188 129.226562 152.335938 128.417969 C 152.574219 127.082031 152.84375 125.59375 153.785156 124.867188 C 153.328125 124.636719 152.84375 124.515625 152.328125 124.507812 C 151.816406 124.496094 151.328125 124.601562 150.859375 124.820312 C 151.214844 126.464844 151.0625 128.0625 150.414062 129.617188 C 150.058594 130.566406 149.425781 131.261719 148.519531 131.703125 C 148.449219 131.738281 148.378906 131.765625 148.304688 131.792969 Z M 144.316406 130.175781 C 144.28125 130.109375 144.253906 130.035156 144.222656 129.964844 C 143.875 129.011719 143.902344 128.070312 144.304688 127.140625 C 144.910156 125.570312 145.90625 124.316406 147.296875 123.378906 C 147.113281 122.894531 146.832031 122.480469 146.457031 122.128906 C 146.082031 121.777344 145.648438 121.527344 145.160156 121.375 C 145.339844 122.554688 144.5 123.8125 143.746094 124.941406 C 143.257812 125.585938 142.875 126.292969 142.601562 127.058594 C 142.289062 128.3125 142.78125 129.261719 144.316406 130.175781 Z M 149.632812 122.726562 C 149.378906 122.914062 149.082031 123.089844 148.753906 123.285156 C 147.894531 123.71875 147.136719 124.292969 146.480469 125 C 145.824219 125.710938 145.316406 126.511719 144.949219 127.40625 C 144.613281 128.164062 144.589844 128.929688 144.875 129.710938 C 145 130.03125 145.183594 130.3125 145.421875 130.554688 C 145.664062 130.796875 145.941406 130.984375 146.257812 131.113281 C 146.574219 131.242188 146.90625 131.300781 147.246094 131.292969 C 147.589844 131.285156 147.914062 131.210938 148.226562 131.070312 C 148.96875 130.707031 149.484375 130.136719 149.765625 129.355469 C 150.121094 128.457031 150.308594 127.527344 150.328125 126.558594 C 150.347656 125.59375 150.195312 124.652344 149.875 123.742188 C 149.777344 123.371094 149.6875 123.035156 149.632812 122.722656 Z M 148.148438 170.335938 C 148.839844 168.675781 148.667969 167.617188 147.671875 166.800781 C 146.996094 166.351562 146.269531 166.015625 145.492188 165.789062 C 144.21875 165.332031 142.796875 164.828125 142.238281 163.773438 C 141.933594 164.1875 141.738281 164.648438 141.644531 165.15625 C 141.550781 165.664062 141.574219 166.164062 141.714844 166.660156 C 143.390625 166.582031 144.9375 166.988281 146.355469 167.886719 C 147.3125 168.4375 147.910156 169.253906 148.152344 170.332031 Z M 144.988281 174.140625 C 144.242188 174.132812 143.554688 173.929688 142.925781 173.535156 C 141.480469 172.679688 140.410156 171.484375 139.714844 169.953125 C 139.210938 170.058594 138.757812 170.265625 138.351562 170.582031 C 137.941406 170.894531 137.625 171.285156 137.398438 171.746094 C 138.585938 171.761719 139.683594 172.796875 140.671875 173.722656 C 141.226562 174.316406 141.859375 174.808594 142.566406 175.203125 C 143.75 175.722656 144.765625 175.386719 145.917969 174.011719 C 145.613281 174.097656 145.304688 174.140625 144.992188 174.136719 Z M 139.453125 167.535156 C 139.59375 167.816406 139.722656 168.136719 139.859375 168.5 C 140.144531 169.421875 140.585938 170.265625 141.175781 171.027344 C 141.765625 171.792969 142.46875 172.429688 143.289062 172.9375 C 144.933594 173.941406 146.476562 173.351562 147.148438 172.246094 C 147.816406 171.140625 147.636719 169.492188 145.992188 168.484375 C 145.167969 167.984375 144.28125 167.648438 143.332031 167.472656 C 142.386719 167.296875 141.4375 167.292969 140.492188 167.460938 C 140.113281 167.5 139.765625 167.53125 139.453125 167.535156 Z M 131.710938 151.453125 C 132.585938 152.097656 133.355469 152.847656 134.023438 153.703125 C 135.210938 155.066406 136.558594 156.613281 138.152344 157.234375 C 139.203125 157.585938 140.28125 157.703125 141.382812 157.589844 C 141.753906 157.574219 142.117188 157.5625 142.476562 157.570312 C 141.429688 156.636719 140.28125 155.84375 139.035156 155.195312 C 138.945312 155.160156 138.882812 155.097656 138.847656 155.007812 C 138.808594 154.917969 138.808594 154.828125 138.847656 154.738281 C 138.882812 154.648438 138.945312 154.585938 139.035156 154.546875 C 139.125 154.511719 139.214844 154.511719 139.304688 154.550781 C 140.359375 155.066406 141.339844 155.710938 142.234375 156.476562 C 142.152344 156.289062 142.078125 156.09375 141.996094 155.898438 C 141.679688 154.863281 141.152344 153.953125 140.40625 153.167969 C 138.265625 151.332031 134.367188 150.617188 131.710938 151.453125 Z M 134.949219 132.609375 C 135.214844 132.988281 135.464844 133.378906 135.6875 133.785156 C 136.582031 135.316406 137.675781 137.199219 140.234375 137.683594 C 140.164062 137.015625 139.984375 136.378906 139.6875 135.773438 C 139.394531 135.171875 139.003906 134.636719 138.519531 134.171875 C 138.035156 133.707031 137.484375 133.339844 136.871094 133.070312 C 136.257812 132.804688 135.617188 132.648438 134.949219 132.609375 Z M 151.953125 181.71875 C 151.457031 181.851562 151.011719 182.074219 150.617188 182.398438 C 150.21875 182.71875 149.90625 183.109375 149.675781 183.566406 C 149.023438 184.738281 148.855469 185.980469 149.171875 187.285156 C 149.574219 186.828125 150.023438 186.421875 150.515625 186.0625 C 151.746094 185.097656 152.726562 184.328125 151.953125 181.722656 Z M 159.519531 116.949219 C 157.785156 117.0625 157.171875 118.199219 156.527344 119.402344 C 156.300781 119.855469 156.039062 120.28125 155.734375 120.6875 C 156.730469 120.519531 157.625 120.121094 158.414062 119.488281 C 159.203125 118.859375 159.789062 118.074219 160.167969 117.136719 C 159.953125 117.078125 159.738281 117.015625 159.519531 116.949219 Z M 158.371094 110.199219 C 158.335938 110.828125 158.386719 111.457031 158.519531 112.074219 C 158.652344 112.691406 158.863281 113.28125 159.152344 113.84375 C 159.441406 114.40625 159.800781 114.921875 160.226562 115.386719 C 160.65625 115.851562 161.136719 116.253906 161.667969 116.59375 C 161.628906 116.019531 161.699219 115.460938 161.882812 114.917969 C 162.191406 114.097656 162.167969 113.285156 161.816406 112.484375 C 161.445312 111.53125 160.730469 111.265625 159.902344 110.953125 C 159.355469 110.777344 158.84375 110.527344 158.371094 110.199219 Z M 179.285156 101.355469 C 178.476562 100.632812 177.550781 100.121094 176.507812 99.832031 C 175.144531 99.453125 173.976562 98.75 173.011719 97.71875 C 172.015625 99.714844 170.804688 103.246094 171.625 105.824219 C 171.945312 106.886719 172.597656 107.667969 173.578125 108.167969 C 176.214844 107.21875 179.078125 106.4375 181.722656 108.152344 C 180.96875 106.300781 180.3125 104.882812 179.863281 104.015625 C 179.390625 103.191406 179.199219 102.304688 179.285156 101.359375 Z M 182.234375 109.4375 C 179.347656 106.777344 176.082031 107.988281 172.925781 109.15625 C 170.617188 110.011719 168.421875 110.824219 166.652344 109.902344 C 166.988281 112.386719 169.539062 114.8125 170.949219 115.136719 C 174.769531 113.246094 178.796875 112.050781 183.03125 111.554688 C 182.761719 110.808594 182.496094 110.105469 182.234375 109.4375 Z M 157.484375 193.1875 C 157.304688 193.191406 157.191406 193.105469 157.140625 192.929688 C 157.09375 192.757812 157.148438 192.625 157.304688 192.535156 C 158.429688 191.898438 159.589844 191.324219 160.78125 190.816406 C 163.851562 189.441406 166.507812 188.253906 167.539062 184.78125 C 166.585938 183.304688 165.734375 181.769531 164.988281 180.175781 C 164.847656 179.859375 164.707031 179.527344 164.566406 179.175781 C 163.835938 182.382812 160.789062 184.839844 157.585938 187.425781 C 153.730469 190.53125 149.746094 193.746094 149.367188 198.5625 C 149.242188 199.53125 149.324219 200.484375 149.609375 201.421875 C 149.894531 202.359375 150.359375 203.191406 151.003906 203.925781 C 151.664062 204.628906 152.433594 205.175781 153.316406 205.5625 C 152.90625 205.140625 152.578125 204.664062 152.324219 204.132812 C 152.117188 203.6875 151.972656 203.222656 151.898438 202.738281 C 151.828125 202.25 151.824219 201.765625 151.894531 201.28125 C 151.964844 200.792969 152.101562 200.328125 152.308594 199.882812 C 152.511719 199.4375 152.777344 199.03125 153.105469 198.664062 C 154.902344 196.460938 158.027344 195.148438 161.046875 193.882812 C 165.117188 192.175781 168.960938 190.558594 169.019531 187.019531 C 168.671875 186.515625 168.339844 186.023438 168.019531 185.535156 C 166.785156 188.894531 164 190.140625 161.0625 191.457031 C 159.894531 191.953125 158.757812 192.515625 157.652344 193.136719 C 157.601562 193.167969 157.542969 193.1875 157.484375 193.1875 Z M 154.738281 195.265625 C 154.832031 195.265625 154.914062 195.230469 154.980469 195.164062 C 155.125 195.023438 155.269531 194.886719 155.414062 194.757812 C 155.488281 194.691406 155.527344 194.613281 155.53125 194.515625 C 155.539062 194.417969 155.507812 194.335938 155.445312 194.261719 C 155.378906 194.191406 155.300781 194.152344 155.203125 194.144531 C 155.109375 194.140625 155.023438 194.167969 154.953125 194.234375 C 154.796875 194.371094 154.644531 194.515625 154.492188 194.664062 C 154.378906 194.773438 154.351562 194.902344 154.414062 195.046875 C 154.472656 195.191406 154.578125 195.265625 154.738281 195.265625 Z M 158.523438 202.503906 C 157.867188 202.46875 157.257812 202.277344 156.699219 201.933594 C 156.136719 201.589844 155.691406 201.132812 155.359375 200.566406 C 154.851562 199.675781 154.753906 198.742188 155.054688 197.761719 C 154.535156 198.15625 154.066406 198.605469 153.648438 199.105469 C 153.367188 199.421875 153.136719 199.773438 152.957031 200.15625 C 152.777344 200.542969 152.65625 200.945312 152.59375 201.363281 C 152.535156 201.785156 152.535156 202.203125 152.597656 202.625 C 152.65625 203.046875 152.777344 203.449219 152.960938 203.832031 C 153.636719 205.269531 155.015625 206.277344 156.308594 206.277344 C 159.539062 206.277344 161.875 204.382812 163.941406 202.710938 C 165.40625 201.523438 166.816406 200.382812 168.304688 200.257812 C 166.363281 199.523438 164.511719 200.375 162.578125 201.261719 C 161.1875 201.902344 159.875 202.503906 158.523438 202.503906 Z M 180.949219 206.1875 C 180.8125 206.1875 180.710938 206.128906 180.644531 206.011719 C 180.519531 205.792969 180.355469 205.472656 180.164062 205.082031 C 180.121094 204.996094 180.117188 204.90625 180.148438 204.8125 C 180.179688 204.722656 180.238281 204.65625 180.324219 204.613281 C 180.410156 204.570312 180.5 204.566406 180.589844 204.597656 C 180.679688 204.628906 180.746094 204.6875 180.789062 204.773438 C 180.976562 205.148438 181.132812 205.453125 181.25 205.664062 C 181.28125 205.71875 181.296875 205.773438 181.296875 205.835938 C 181.296875 205.898438 181.28125 205.957031 181.25 206.011719 C 181.21875 206.066406 181.179688 206.109375 181.125 206.140625 C 181.070312 206.171875 181.015625 206.1875 180.953125 206.1875 Z M 161.136719 166.363281 C 160.699219 165.949219 160.214844 165.597656 159.683594 165.3125 C 159.15625 165.023438 158.597656 164.808594 158.011719 164.664062 C 157.425781 164.523438 156.832031 164.457031 156.230469 164.472656 C 155.628906 164.484375 155.039062 164.574219 154.460938 164.742188 C 156.695312 169.351562 159.761719 173.3125 163.652344 176.632812 C 162.578125 173.269531 161.738281 169.84375 161.136719 166.363281 Z M 153.382812 162.300781 C 154.035156 161.949219 154.613281 161.503906 155.125 160.96875 C 155.632812 160.429688 156.042969 159.828125 156.359375 159.15625 C 156.671875 158.484375 156.875 157.78125 156.964844 157.046875 C 157.054688 156.3125 157.027344 155.578125 156.882812 154.851562 C 156.738281 154.125 156.484375 153.4375 156.121094 152.792969 C 155.757812 152.148438 155.300781 151.578125 154.753906 151.078125 C 154.207031 150.582031 153.597656 150.183594 152.921875 149.882812 C 152.246094 149.582031 151.542969 149.394531 150.804688 149.320312 C 150.875 153.804688 151.734375 158.132812 153.382812 162.300781 Z M 150.851562 146.707031 C 151.625 146.703125 152.375 146.578125 153.101562 146.324219 C 153.828125 146.070312 154.496094 145.703125 155.101562 145.222656 C 155.707031 144.746094 156.21875 144.179688 156.636719 143.53125 C 157.054688 142.878906 157.355469 142.175781 157.535156 141.425781 C 157.71875 140.671875 157.773438 139.914062 157.703125 139.140625 C 157.628906 138.371094 157.433594 137.632812 157.117188 136.929688 C 156.796875 136.222656 156.371094 135.589844 155.84375 135.03125 C 155.3125 134.46875 154.703125 134.007812 154.019531 133.652344 C 152.152344 137.804688 151.09375 142.15625 150.851562 146.707031 Z M 155.167969 131.324219 C 155.875 131.699219 156.625 131.945312 157.414062 132.058594 C 158.207031 132.171875 158.992188 132.148438 159.777344 131.988281 C 160.558594 131.828125 161.292969 131.542969 161.976562 131.125 C 162.660156 130.707031 163.253906 130.1875 163.757812 129.5625 C 164.257812 128.941406 164.640625 128.25 164.90625 127.492188 C 165.167969 126.734375 165.296875 125.957031 165.292969 125.152344 C 165.285156 124.351562 165.144531 123.574219 164.867188 122.820312 C 164.589844 122.066406 164.195312 121.382812 163.679688 120.769531 C 160.1875 123.753906 157.351562 127.273438 155.171875 131.324219 Z M 165.722656 119.144531 C 165.953125 119.480469 166.210938 119.792969 166.5 120.085938 C 166.785156 120.375 167.09375 120.636719 167.429688 120.871094 C 167.761719 121.105469 168.113281 121.308594 168.480469 121.480469 C 168.851562 121.652344 169.230469 121.792969 169.625 121.898438 C 170.019531 122 170.417969 122.070312 170.824219 122.105469 C 171.230469 122.136719 171.632812 122.136719 172.039062 122.097656 C 172.445312 122.058594 172.84375 121.984375 173.234375 121.875 C 173.628906 121.765625 174.007812 121.621094 174.375 121.445312 C 174.742188 121.269531 175.089844 121.0625 175.417969 120.824219 C 175.75 120.582031 176.054688 120.316406 176.339844 120.023438 C 176.621094 119.730469 176.878906 119.414062 177.105469 119.078125 C 177.332031 118.738281 177.53125 118.382812 177.695312 118.007812 C 177.859375 117.632812 177.988281 117.25 178.085938 116.851562 C 178.183594 116.457031 178.242188 116.054688 178.269531 115.644531 C 178.296875 115.238281 178.285156 114.832031 178.238281 114.425781 C 178.191406 114.019531 178.113281 113.621094 177.996094 113.230469 C 173.53125 114.421875 169.441406 116.394531 165.722656 119.144531 Z M 174.21875 164.007812 C 175.277344 164.015625 176.308594 163.839844 177.304688 163.480469 C 178.304688 163.117188 179.210938 162.59375 180.023438 161.910156 C 180.597656 161.410156 181.496094 161.9375 181.507812 161.945312 C 181.589844 161.992188 181.675781 162.007812 181.769531 161.984375 C 181.863281 161.957031 181.933594 161.90625 181.984375 161.824219 C 182.03125 161.742188 182.046875 161.652344 182.023438 161.558594 C 182 161.464844 181.949219 161.394531 181.863281 161.34375 C 181.8125 161.308594 180.523438 160.542969 179.5625 161.378906 C 176.847656 163.742188 172.296875 163.9375 169.617188 161.800781 C 169.542969 161.738281 169.457031 161.710938 169.359375 161.722656 C 169.261719 161.730469 169.183594 161.777344 169.121094 161.851562 C 169.0625 161.929688 169.035156 162.015625 169.050781 162.113281 C 169.0625 162.210938 169.105469 162.289062 169.183594 162.347656 C 170.671875 163.484375 172.347656 164.039062 174.21875 164.007812 Z M 181.554688 152.816406 C 181.707031 152.816406 181.816406 152.742188 181.871094 152.597656 C 181.929688 152.453125 181.902344 152.324219 181.792969 152.214844 C 180.6875 151.09375 179.40625 150.238281 177.949219 149.65625 C 176.488281 149.070312 174.972656 148.804688 173.402344 148.855469 C 172.078125 148.898438 170.8125 149.191406 169.609375 149.738281 C 168.402344 150.289062 167.347656 151.046875 166.441406 152.015625 C 166.375 152.085938 166.339844 152.171875 166.347656 152.269531 C 166.351562 152.371094 166.390625 152.453125 166.464844 152.515625 C 166.539062 152.582031 166.625 152.613281 166.722656 152.605469 C 166.820312 152.597656 166.902344 152.554688 166.964844 152.476562 C 167.804688 151.578125 168.785156 150.878906 169.90625 150.371094 C 171.027344 149.863281 172.203125 149.59375 173.429688 149.554688 C 174.90625 149.507812 176.328125 149.757812 177.699219 150.308594 C 179.070312 150.863281 180.273438 151.664062 181.3125 152.722656 C 181.378906 152.789062 181.460938 152.820312 181.554688 152.816406 Z M 165.519531 154.539062 C 165.683594 154.539062 165.789062 154.464844 165.847656 154.308594 C 165.894531 154.175781 165.949219 154.042969 166.011719 153.914062 C 166.046875 153.828125 166.050781 153.738281 166.015625 153.652344 C 165.980469 153.5625 165.921875 153.496094 165.835938 153.457031 C 165.753906 153.417969 165.664062 153.414062 165.574219 153.445312 C 165.488281 153.476562 165.421875 153.53125 165.378906 153.617188 C 165.308594 153.765625 165.246094 153.917969 165.191406 154.070312 C 165.160156 154.160156 165.164062 154.25 165.203125 154.339844 C 165.242188 154.425781 165.308594 154.484375 165.398438 154.519531 C 165.4375 154.535156 165.480469 154.539062 165.519531 154.539062 Z M 165.519531 154.539062" fill-rule="evenodd"/></g></svg>